<svg xmlns="http://www.w3.org/2000/svg" width="179" height="119" viewBox="0 0 179 119" fill="none"><path d="M6.88674 87.7129C6.73474 88.0662 6.52674 88.3742 6.26274 88.6382C5.99741 88.9036 5.68941 89.1116 5.33607 89.2636C4.98407 89.4142 4.60674 89.4902 4.20407 89.4902H3.36007C2.95874 89.4902 2.58007 89.4142 2.22274 89.2636C1.86807 89.1116 1.55741 88.9036 1.29341 88.6382C1.02807 88.3742 0.820073 88.0662 0.668073 87.7129C0.517406 87.3596 0.441406 86.9822 0.441406 86.5796V80.2129C0.441406 79.8102 0.517406 79.4329 0.668073 79.0796C0.820073 78.7289 1.02807 78.4182 1.29341 78.1542C1.55741 77.8902 1.86807 77.6822 2.22274 77.5302C2.58007 77.3782 2.95874 77.3022 3.36007 77.3022H4.20407C4.60674 77.3022 4.98407 77.3782 5.33607 77.5302C5.68941 77.6822 5.99741 77.8902 6.26274 78.1542C6.52674 78.4182 6.73474 78.7289 6.88674 79.0796C7.03874 79.4329 7.11474 79.8102 7.11474 80.2129V80.6929L6.04807 80.8569V80.2129C6.04807 79.9489 5.99741 79.7022 5.89874 79.4729C5.80007 79.2436 5.66407 79.0449 5.49341 78.8742C5.32274 78.7022 5.12274 78.5689 4.89341 78.4689C4.66541 78.3689 4.41874 78.3196 4.15474 78.3196H3.41074C3.14541 78.3196 2.89874 78.3689 2.66941 78.4689C2.44141 78.5689 2.24007 78.7022 2.06674 78.8742C1.89207 79.0449 1.75607 79.2436 1.65741 79.4729C1.55741 79.7022 1.50807 79.9489 1.50807 80.2129V86.5796C1.50807 86.8449 1.55741 87.0916 1.65741 87.3196C1.75607 87.5489 1.89207 87.7502 2.06674 87.9236C2.24007 88.0969 2.44141 88.2342 2.66941 88.3329C2.89874 88.4316 3.14541 88.4809 3.41074 88.4809H4.15474C4.41874 88.4809 4.66541 88.4316 4.89341 88.3329C5.12274 88.2342 5.32274 88.0969 5.49341 87.9236C5.66407 87.7502 5.80007 87.5489 5.89874 87.3196C5.99741 87.0916 6.04807 86.8449 6.04807 86.5796V85.9356L7.11474 86.1089V86.5796C7.11474 86.9822 7.03874 87.3596 6.88674 87.7129Z" fill="#7A3C19"></path><path d="M6.88674 87.7129C6.73474 88.0662 6.52674 88.3742 6.26274 88.6382C5.99741 88.9036 5.68941 89.1116 5.33607 89.2636C4.98407 89.4142 4.60674 89.4902 4.20407 89.4902H3.36007C2.95874 89.4902 2.58007 89.4142 2.22274 89.2636C1.86807 89.1116 1.55741 88.9036 1.29341 88.6382C1.02807 88.3742 0.820073 88.0662 0.668073 87.7129C0.517406 87.3596 0.441406 86.9822 0.441406 86.5796V80.2129C0.441406 79.8102 0.517406 79.4329 0.668073 79.0796C0.820073 78.7289 1.02807 78.4182 1.29341 78.1542C1.55741 77.8902 1.86807 77.6822 2.22274 77.5302C2.58007 77.3782 2.95874 77.3022 3.36007 77.3022H4.20407C4.60674 77.3022 4.98407 77.3782 5.33607 77.5302C5.68941 77.6822 5.99741 77.8902 6.26274 78.1542C6.52674 78.4182 6.73474 78.7289 6.88674 79.0796C7.03874 79.4329 7.11474 79.8102 7.11474 80.2129V80.6929L6.04807 80.8569V80.2129C6.04807 79.9489 5.99741 79.7022 5.89874 79.4729C5.80007 79.2436 5.66407 79.0449 5.49341 78.8742C5.32274 78.7022 5.12274 78.5689 4.89341 78.4689C4.66541 78.3689 4.41874 78.3196 4.15474 78.3196H3.41074C3.14541 78.3196 2.89874 78.3689 2.66941 78.4689C2.44141 78.5689 2.24007 78.7022 2.06674 78.8742C1.89207 79.0449 1.75607 79.2436 1.65741 79.4729C1.55741 79.7022 1.50807 79.9489 1.50807 80.2129V86.5796C1.50807 86.8449 1.55741 87.0916 1.65741 87.3196C1.75607 87.5489 1.89207 87.7502 2.06674 87.9236C2.24007 88.0969 2.44141 88.2342 2.66941 88.3329C2.89874 88.4316 3.14541 88.4809 3.41074 88.4809H4.15474C4.41874 88.4809 4.66541 88.4316 4.89341 88.3329C5.12274 88.2342 5.32274 88.0969 5.49341 87.9236C5.66407 87.7502 5.80007 87.5489 5.89874 87.3196C5.99741 87.0916 6.04807 86.8449 6.04807 86.5796V85.9356L7.11474 86.1089V86.5796C7.11474 86.9822 7.03874 87.3596 6.88674 87.7129Z" stroke="#7A3C19" stroke-width="0.586667" stroke-miterlimit="10" stroke-linejoin="bevel"></path><path d="M9.55566 89.3262V77.4688H16.2277V78.4862H10.6223V82.8942H15.1623V83.9102H10.6223V88.3088H16.2277V89.3262H9.55566Z" fill="#7A3C19"></path><path d="M9.55566 89.3262V77.4688H16.2277V78.4862H10.6223V82.8942H15.1623V83.9102H10.6223V88.3088H16.2277V89.3262H9.55566Z" stroke="#7A3C19" stroke-width="0.586667" stroke-miterlimit="10" stroke-linejoin="bevel"></path><path d="M24.4407 89.3262L19.4967 80.6942L19.3967 80.1822V89.3262H18.3301V77.4688H18.8847L23.8287 86.1102L23.9367 86.6142V77.4688H25.0034V89.3262H24.4407Z" fill="#7A3C19"></path><path d="M24.4407 89.3262L19.4967 80.6942L19.3967 80.1822V89.3262H18.3301V77.4688H18.8847L23.8287 86.1102L23.9367 86.6142V77.4688H25.0034V89.3262H24.4407Z" stroke="#7A3C19" stroke-width="0.586667" stroke-miterlimit="10" stroke-linejoin="bevel"></path><path d="M30.659 78.4862V89.3262H29.5923V78.4862H26.7656V77.4688H33.487V78.4862H30.659Z" fill="#7A3C19"></path><path d="M30.659 78.4862V89.3262H29.5923V78.4862H26.7656V77.4688H33.487V78.4862H30.659Z" stroke="#7A3C19" stroke-width="0.586667" stroke-miterlimit="10" stroke-linejoin="bevel"></path><path d="M40.6828 80.3869C40.6828 80.1216 40.6335 79.8749 40.5335 79.6456C40.4348 79.4176 40.2988 79.2162 40.1282 79.0429C39.9588 78.8682 39.7575 78.7336 39.5295 78.6336C39.3002 78.5336 39.0535 78.4842 38.7895 78.4842H36.1428V83.2482H38.7895C39.0535 83.2482 39.3002 83.1976 39.5295 83.0976C39.7575 82.9989 39.9588 82.8629 40.1282 82.6896C40.2988 82.5162 40.4348 82.3136 40.5335 82.0856C40.6335 81.8576 40.6828 81.6109 40.6828 81.3456V80.3869ZM40.8228 89.3242L37.6068 84.2642H36.1428V89.3242H35.0762V77.4682H38.8388C39.2402 77.4682 39.6188 77.5429 39.9722 77.6949C40.3242 77.8469 40.6335 78.0549 40.8975 78.3189C41.1615 78.5829 41.3695 78.8936 41.5215 79.2496C41.6735 79.6056 41.7495 79.9842 41.7495 80.3869V81.3456C41.7495 81.7482 41.6735 82.1269 41.5215 82.4816C41.3695 82.8376 41.1615 83.1469 40.8975 83.4136C40.6335 83.6776 40.3242 83.8856 39.9722 84.0362C39.6188 84.1896 39.2402 84.2642 38.8388 84.2642L42.0548 89.3242H40.8228Z" fill="#7A3C19"></path><path d="M40.6828 80.3869C40.6828 80.1216 40.6335 79.8749 40.5335 79.6456C40.4348 79.4176 40.2988 79.2162 40.1282 79.0429C39.9588 78.8682 39.7575 78.7336 39.5295 78.6336C39.3002 78.5336 39.0535 78.4842 38.7895 78.4842H36.1428V83.2482H38.7895C39.0535 83.2482 39.3002 83.1976 39.5295 83.0976C39.7575 82.9989 39.9588 82.8629 40.1282 82.6896C40.2988 82.5162 40.4348 82.3136 40.5335 82.0856C40.6335 81.8576 40.6828 81.6109 40.6828 81.3456V80.3869ZM40.8228 89.3242L37.6068 84.2642H36.1428V89.3242H35.0762V77.4682H38.8388C39.2402 77.4682 39.6188 77.5429 39.9722 77.6949C40.3242 77.8469 40.6335 78.0549 40.8975 78.3189C41.1615 78.5829 41.3695 78.8936 41.5215 79.2496C41.6735 79.6056 41.7495 79.9842 41.7495 80.3869V81.3456C41.7495 81.7482 41.6735 82.1269 41.5215 82.4816C41.3695 82.8376 41.1615 83.1469 40.8975 83.4136C40.6335 83.6776 40.3242 83.8856 39.9722 84.0362C39.6188 84.1896 39.2402 84.2642 38.8388 84.2642L42.0548 89.3242H40.8228Z" stroke="#7A3C19" stroke-width="0.586667" stroke-miterlimit="10" stroke-linejoin="bevel"></path><path d="M49.5891 80.2129C49.5891 79.9489 49.5398 79.7022 49.4398 79.4729C49.3411 79.2436 49.2051 79.0449 49.0344 78.8742C48.8651 78.7022 48.6638 78.5689 48.4358 78.4689C48.2064 78.3689 47.9598 78.3196 47.6958 78.3196H46.9504C46.6864 78.3196 46.4398 78.3689 46.2118 78.4689C45.9824 78.5689 45.7811 78.7022 45.6078 78.8742C45.4344 79.0449 45.2984 79.2436 45.1984 79.4729C45.0998 79.7022 45.0491 79.9489 45.0491 80.2129V86.5796C45.0491 86.8449 45.0998 87.0916 45.1984 87.3196C45.2984 87.5489 45.4344 87.7502 45.6078 87.9236C45.7811 88.0969 45.9824 88.2342 46.2118 88.3329C46.4398 88.4316 46.6864 88.4809 46.9504 88.4809H47.6958C47.9598 88.4809 48.2064 88.4316 48.4358 88.3329C48.6638 88.2342 48.8651 88.0969 49.0344 87.9236C49.2051 87.7502 49.3411 87.5489 49.4398 87.3196C49.5398 87.0916 49.5891 86.8449 49.5891 86.5796V80.2129ZM50.4278 87.7129C50.2771 88.0662 50.0678 88.3742 49.8038 88.6382C49.5398 88.9036 49.2304 89.1116 48.8784 89.2636C48.5251 89.4142 48.1478 89.4902 47.7451 89.4902H46.9011C46.4998 89.4902 46.1198 89.4142 45.7651 89.2636C45.4091 89.1116 45.0998 88.9036 44.8358 88.6382C44.5691 88.3742 44.3624 88.0662 44.2104 87.7129C44.0598 87.3596 43.9824 86.9822 43.9824 86.5796V80.2129C43.9824 79.8102 44.0598 79.4329 44.2104 79.0796C44.3624 78.7289 44.5691 78.4182 44.8358 78.1542C45.0998 77.8902 45.4091 77.6822 45.7651 77.5302C46.1198 77.3782 46.4998 77.3022 46.9011 77.3022H47.7451C48.1478 77.3022 48.5251 77.3782 48.8784 77.5302C49.2304 77.6822 49.5398 77.8902 49.8038 78.1542C50.0678 78.4182 50.2771 78.7289 50.4278 79.0796C50.5798 79.4329 50.6558 79.8102 50.6558 80.2129V86.5796C50.6558 86.9822 50.5798 87.3596 50.4278 87.7129Z" fill="#7A3C19"></path><path d="M49.5891 80.2129C49.5891 79.9489 49.5398 79.7022 49.4398 79.4729C49.3411 79.2436 49.2051 79.0449 49.0344 78.8742C48.8651 78.7022 48.6638 78.5689 48.4358 78.4689C48.2064 78.3689 47.9598 78.3196 47.6958 78.3196H46.9504C46.6864 78.3196 46.4398 78.3689 46.2118 78.4689C45.9824 78.5689 45.7811 78.7022 45.6078 78.8742C45.4344 79.0449 45.2984 79.2436 45.1984 79.4729C45.0998 79.7022 45.0491 79.9489 45.0491 80.2129V86.5796C45.0491 86.8449 45.0998 87.0916 45.1984 87.3196C45.2984 87.5489 45.4344 87.7502 45.6078 87.9236C45.7811 88.0969 45.9824 88.2342 46.2118 88.3329C46.4398 88.4316 46.6864 88.4809 46.9504 88.4809H47.6958C47.9598 88.4809 48.2064 88.4316 48.4358 88.3329C48.6638 88.2342 48.8651 88.0969 49.0344 87.9236C49.2051 87.7502 49.3411 87.5489 49.4398 87.3196C49.5398 87.0916 49.5891 86.8449 49.5891 86.5796V80.2129ZM50.4278 87.7129C50.2771 88.0662 50.0678 88.3742 49.8038 88.6382C49.5398 88.9036 49.2304 89.1116 48.8784 89.2636C48.5251 89.4142 48.1478 89.4902 47.7451 89.4902H46.9011C46.4998 89.4902 46.1198 89.4142 45.7651 89.2636C45.4091 89.1116 45.0998 88.9036 44.8358 88.6382C44.5691 88.3742 44.3624 88.0662 44.2104 87.7129C44.0598 87.3596 43.9824 86.9822 43.9824 86.5796V80.2129C43.9824 79.8102 44.0598 79.4329 44.2104 79.0796C44.3624 78.7289 44.5691 78.4182 44.8358 78.1542C45.0998 77.8902 45.4091 77.6822 45.7651 77.5302C46.1198 77.3782 46.4998 77.3022 46.9011 77.3022H47.7451C48.1478 77.3022 48.5251 77.3782 48.8784 77.5302C49.2304 77.6822 49.5398 77.8902 49.8038 78.1542C50.0678 78.4182 50.2771 78.7289 50.4278 79.0796C50.5798 79.4329 50.6558 79.8102 50.6558 80.2129V86.5796C50.6558 86.9822 50.5798 87.3596 50.4278 87.7129Z" stroke="#7A3C19" stroke-width="0.586667" stroke-miterlimit="10" stroke-linejoin="bevel"></path><path d="M62.8381 80.3869C62.8381 80.1216 62.7888 79.8749 62.6888 79.6456C62.5901 79.4176 62.4541 79.2162 62.2808 79.0429C62.1061 78.8682 61.9048 78.7336 61.6768 78.6336C61.4474 78.5336 61.2008 78.4842 60.9368 78.4842H58.2981V88.3069H60.9368C61.2008 88.3069 61.4474 88.2576 61.6768 88.1589C61.9048 88.0602 62.1061 87.9242 62.2808 87.7536C62.4541 87.5816 62.5901 87.3829 62.6888 87.1536C62.7888 86.9242 62.8381 86.6789 62.8381 86.4149V80.3869ZM63.6768 87.5469C63.5248 87.9002 63.3168 88.2082 63.0528 88.4722C62.7888 88.7376 62.4781 88.9456 62.1221 89.0962C61.7674 89.2482 61.3888 89.3242 60.9861 89.3242H57.2314V77.4682H60.9861C61.3888 77.4682 61.7674 77.5429 62.1221 77.6949C62.4781 77.8469 62.7888 78.0549 63.0528 78.3189C63.3168 78.5829 63.5248 78.8936 63.6768 79.2496C63.8288 79.6056 63.9048 79.9842 63.9048 80.3869V86.4149C63.9048 86.8162 63.8288 87.1936 63.6768 87.5469Z" fill="#7A3C19"></path><path d="M62.8381 80.3869C62.8381 80.1216 62.7888 79.8749 62.6888 79.6456C62.5901 79.4176 62.4541 79.2162 62.2808 79.0429C62.1061 78.8682 61.9048 78.7336 61.6768 78.6336C61.4474 78.5336 61.2008 78.4842 60.9368 78.4842H58.2981V88.3069H60.9368C61.2008 88.3069 61.4474 88.2576 61.6768 88.1589C61.9048 88.0602 62.1061 87.9242 62.2808 87.7536C62.4541 87.5816 62.5901 87.3829 62.6888 87.1536C62.7888 86.9242 62.8381 86.6789 62.8381 86.4149V80.3869ZM63.6768 87.5469C63.5248 87.9002 63.3168 88.2082 63.0528 88.4722C62.7888 88.7376 62.4781 88.9456 62.1221 89.0962C61.7674 89.2482 61.3888 89.3242 60.9861 89.3242H57.2314V77.4682H60.9861C61.3888 77.4682 61.7674 77.5429 62.1221 77.6949C62.4781 77.8469 62.7888 78.0549 63.0528 78.3189C63.3168 78.5829 63.5248 78.8936 63.6768 79.2496C63.8288 79.6056 63.9048 79.9842 63.9048 80.3869V86.4149C63.9048 86.8162 63.8288 87.1936 63.6768 87.5469Z" stroke="#7A3C19" stroke-width="0.586667" stroke-miterlimit="10" stroke-linejoin="bevel"></path><path d="M66.5107 89.3262V77.4688H73.1827V78.4862H67.5774V82.8942H72.1174V83.9102H67.5774V88.3088H73.1827V89.3262H66.5107Z" fill="#7A3C19"></path><path d="M66.5107 89.3262V77.4688H73.1827V78.4862H67.5774V82.8942H72.1174V83.9102H67.5774V88.3088H73.1827V89.3262H66.5107Z" stroke="#7A3C19" stroke-width="0.586667" stroke-miterlimit="10" stroke-linejoin="bevel"></path><path d="M85.5186 87.7129C85.3666 88.0662 85.1586 88.3742 84.8946 88.6382C84.6292 88.9036 84.3212 89.1116 83.9679 89.2636C83.6159 89.4142 83.2386 89.4902 82.8359 89.4902H81.9919C81.5906 89.4902 81.2119 89.4142 80.8546 89.2636C80.4999 89.1116 80.1892 88.9036 79.9252 88.6382C79.6599 88.3742 79.4519 88.0662 79.2999 87.7129C79.1492 87.3596 79.0732 86.9822 79.0732 86.5796V80.2129C79.0732 79.8102 79.1492 79.4329 79.2999 79.0796C79.4519 78.7289 79.6599 78.4182 79.9252 78.1542C80.1892 77.8902 80.4999 77.6822 80.8546 77.5302C81.2119 77.3782 81.5906 77.3022 81.9919 77.3022H82.8359C83.2386 77.3022 83.6159 77.3782 83.9679 77.5302C84.3212 77.6822 84.6292 77.8902 84.8946 78.1542C85.1586 78.4182 85.3666 78.7289 85.5186 79.0796C85.6706 79.4329 85.7466 79.8102 85.7466 80.2129V80.6929L84.6799 80.8569V80.2129C84.6799 79.9489 84.6292 79.7022 84.5306 79.4729C84.4319 79.2436 84.2959 79.0449 84.1252 78.8742C83.9546 78.7022 83.7546 78.5689 83.5252 78.4689C83.2972 78.3689 83.0506 78.3196 82.7866 78.3196H82.0426C81.7772 78.3196 81.5306 78.3689 81.3012 78.4689C81.0732 78.5689 80.8719 78.7022 80.6986 78.8742C80.5239 79.0449 80.3879 79.2436 80.2892 79.4729C80.1892 79.7022 80.1399 79.9489 80.1399 80.2129V86.5796C80.1399 86.8449 80.1892 87.0916 80.2892 87.3196C80.3879 87.5489 80.5239 87.7502 80.6986 87.9236C80.8719 88.0969 81.0732 88.2342 81.3012 88.3329C81.5306 88.4316 81.7772 88.4809 82.0426 88.4809H82.7866C83.0506 88.4809 83.2972 88.4316 83.5252 88.3329C83.7546 88.2342 83.9546 88.0969 84.1252 87.9236C84.2959 87.7502 84.4319 87.5489 84.5306 87.3196C84.6292 87.0916 84.6799 86.8449 84.6799 86.5796V85.9356L85.7466 86.1089V86.5796C85.7466 86.9822 85.6706 87.3596 85.5186 87.7129Z" fill="#7A3C19"></path><path d="M85.5186 87.7129C85.3666 88.0662 85.1586 88.3742 84.8946 88.6382C84.6292 88.9036 84.3212 89.1116 83.9679 89.2636C83.6159 89.4142 83.2386 89.4902 82.8359 89.4902H81.9919C81.5906 89.4902 81.2119 89.4142 80.8546 89.2636C80.4999 89.1116 80.1892 88.9036 79.9252 88.6382C79.6599 88.3742 79.4519 88.0662 79.2999 87.7129C79.1492 87.3596 79.0732 86.9822 79.0732 86.5796V80.2129C79.0732 79.8102 79.1492 79.4329 79.2999 79.0796C79.4519 78.7289 79.6599 78.4182 79.9252 78.1542C80.1892 77.8902 80.4999 77.6822 80.8546 77.5302C81.2119 77.3782 81.5906 77.3022 81.9919 77.3022H82.8359C83.2386 77.3022 83.6159 77.3782 83.9679 77.5302C84.3212 77.6822 84.6292 77.8902 84.8946 78.1542C85.1586 78.4182 85.3666 78.7289 85.5186 79.0796C85.6706 79.4329 85.7466 79.8102 85.7466 80.2129V80.6929L84.6799 80.8569V80.2129C84.6799 79.9489 84.6292 79.7022 84.5306 79.4729C84.4319 79.2436 84.2959 79.0449 84.1252 78.8742C83.9546 78.7022 83.7546 78.5689 83.5252 78.4689C83.2972 78.3689 83.0506 78.3196 82.7866 78.3196H82.0426C81.7772 78.3196 81.5306 78.3689 81.3012 78.4689C81.0732 78.5689 80.8719 78.7022 80.6986 78.8742C80.5239 79.0449 80.3879 79.2436 80.2892 79.4729C80.1892 79.7022 80.1399 79.9489 80.1399 80.2129V86.5796C80.1399 86.8449 80.1892 87.0916 80.2892 87.3196C80.3879 87.5489 80.5239 87.7502 80.6986 87.9236C80.8719 88.0969 81.0732 88.2342 81.3012 88.3329C81.5306 88.4316 81.7772 88.4809 82.0426 88.4809H82.7866C83.0506 88.4809 83.2972 88.4316 83.5252 88.3329C83.7546 88.2342 83.9546 88.0969 84.1252 87.9236C84.2959 87.7502 84.4319 87.5489 84.5306 87.3196C84.6292 87.0916 84.6799 86.8449 84.6799 86.5796V85.9356L85.7466 86.1089V86.5796C85.7466 86.9822 85.6706 87.3596 85.5186 87.7129Z" stroke="#7A3C19" stroke-width="0.586667" stroke-miterlimit="10" stroke-linejoin="bevel"></path><path d="M93.6203 80.2129C93.6203 79.9489 93.5697 79.7022 93.471 79.4729C93.371 79.2436 93.2363 79.0449 93.0657 78.8742C92.895 78.7022 92.695 78.5689 92.467 78.4689C92.2377 78.3689 91.9897 78.3196 91.7257 78.3196H90.9817C90.7177 78.3196 90.471 78.3689 90.2417 78.4689C90.0137 78.5689 89.8123 78.7022 89.639 78.8742C89.4643 79.0449 89.3283 79.2436 89.2297 79.4729C89.1297 79.7022 89.0803 79.9489 89.0803 80.2129V86.5796C89.0803 86.8449 89.1297 87.0916 89.2297 87.3196C89.3283 87.5489 89.4643 87.7502 89.639 87.9236C89.8123 88.0969 90.0137 88.2342 90.2417 88.3329C90.471 88.4316 90.7177 88.4809 90.9817 88.4809H91.7257C91.9897 88.4809 92.2377 88.4316 92.467 88.3329C92.695 88.2342 92.895 88.0969 93.0657 87.9236C93.2363 87.7502 93.371 87.5489 93.471 87.3196C93.5697 87.0916 93.6203 86.8449 93.6203 86.5796V80.2129ZM94.459 87.7129C94.307 88.0662 94.099 88.3742 93.835 88.6382C93.5697 88.9036 93.2603 89.1116 92.9083 89.2636C92.555 89.4142 92.1777 89.4902 91.7763 89.4902H90.9323C90.531 89.4902 90.151 89.4142 89.795 89.2636C89.4403 89.1116 89.1297 88.9036 88.8657 88.6382C88.6003 88.3742 88.3923 88.0662 88.2403 87.7129C88.0897 87.3596 88.0137 86.9822 88.0137 86.5796V80.2129C88.0137 79.8102 88.0897 79.4329 88.2403 79.0796C88.3923 78.7289 88.6003 78.4182 88.8657 78.1542C89.1297 77.8902 89.4403 77.6822 89.795 77.5302C90.151 77.3782 90.531 77.3022 90.9323 77.3022H91.7763C92.1777 77.3022 92.555 77.3782 92.9083 77.5302C93.2603 77.6822 93.5697 77.8902 93.835 78.1542C94.099 78.4182 94.307 78.7289 94.459 79.0796C94.611 79.4329 94.687 79.8102 94.687 80.2129V86.5796C94.687 86.9822 94.611 87.3596 94.459 87.7129Z" fill="#7A3C19"></path><path d="M93.6203 80.2129C93.6203 79.9489 93.5697 79.7022 93.471 79.4729C93.371 79.2436 93.2363 79.0449 93.0657 78.8742C92.895 78.7022 92.695 78.5689 92.467 78.4689C92.2377 78.3689 91.9897 78.3196 91.7257 78.3196H90.9817C90.7177 78.3196 90.471 78.3689 90.2417 78.4689C90.0137 78.5689 89.8123 78.7022 89.639 78.8742C89.4643 79.0449 89.3283 79.2436 89.2297 79.4729C89.1297 79.7022 89.0803 79.9489 89.0803 80.2129V86.5796C89.0803 86.8449 89.1297 87.0916 89.2297 87.3196C89.3283 87.5489 89.4643 87.7502 89.639 87.9236C89.8123 88.0969 90.0137 88.2342 90.2417 88.3329C90.471 88.4316 90.7177 88.4809 90.9817 88.4809H91.7257C91.9897 88.4809 92.2377 88.4316 92.467 88.3329C92.695 88.2342 92.895 88.0969 93.0657 87.9236C93.2363 87.7502 93.371 87.5489 93.471 87.3196C93.5697 87.0916 93.6203 86.8449 93.6203 86.5796V80.2129ZM94.459 87.7129C94.307 88.0662 94.099 88.3742 93.835 88.6382C93.5697 88.9036 93.2603 89.1116 92.9083 89.2636C92.555 89.4142 92.1777 89.4902 91.7763 89.4902H90.9323C90.531 89.4902 90.151 89.4142 89.795 89.2636C89.4403 89.1116 89.1297 88.9036 88.8657 88.6382C88.6003 88.3742 88.3923 88.0662 88.2403 87.7129C88.0897 87.3596 88.0137 86.9822 88.0137 86.5796V80.2129C88.0137 79.8102 88.0897 79.4329 88.2403 79.0796C88.3923 78.7289 88.6003 78.4182 88.8657 78.1542C89.1297 77.8902 89.4403 77.6822 89.795 77.5302C90.151 77.3782 90.531 77.3022 90.9323 77.3022H91.7763C92.1777 77.3022 92.555 77.3782 92.9083 77.5302C93.2603 77.6822 93.5697 77.8902 93.835 78.1542C94.099 78.4182 94.307 78.7289 94.459 79.0796C94.611 79.4329 94.687 79.8102 94.687 80.2129V86.5796C94.687 86.9822 94.611 87.3596 94.459 87.7129Z" stroke="#7A3C19" stroke-width="0.586667" stroke-miterlimit="10" stroke-linejoin="bevel"></path><path d="M103.41 89.3262L98.4661 80.6942L98.3674 80.1822V89.3262H97.3008V77.4688H97.8541L102.799 86.1102L102.906 86.6142V77.4688H103.973V89.3262H103.41Z" fill="#7A3C19"></path><path d="M103.41 89.3262L98.4661 80.6942L98.3674 80.1822V89.3262H97.3008V77.4688H97.8541L102.799 86.1102L102.906 86.6142V77.4688H103.973V89.3262H103.41Z" stroke="#7A3C19" stroke-width="0.586667" stroke-miterlimit="10" stroke-linejoin="bevel"></path><path d="M113.252 86.5796C113.252 86.9822 113.17 87.3596 113.008 87.7129C112.845 88.0649 112.626 88.3742 112.354 88.6382C112.081 88.9022 111.765 89.1102 111.404 89.2636C111.044 89.4142 110.661 89.4902 110.258 89.4902H109.406C109.004 89.4902 108.622 89.4142 108.262 89.2636C107.901 89.1102 107.584 88.9022 107.31 88.6382C107.038 88.3742 106.82 88.0649 106.658 87.7129C106.496 87.3596 106.413 86.9822 106.413 86.5796V86.1076L107.48 85.9356V86.5796C107.48 86.8436 107.534 87.0916 107.641 87.3196C107.749 87.5489 107.893 87.7502 108.076 87.9236C108.257 88.0969 108.468 88.2329 108.708 88.3316C108.948 88.4316 109.2 88.4809 109.465 88.4809H110.209C110.473 88.4809 110.724 88.4316 110.961 88.3316C111.198 88.2329 111.408 88.0969 111.59 87.9236C111.772 87.7502 111.917 87.5489 112.024 87.3196C112.13 87.0916 112.185 86.8436 112.185 86.5796V86.2236C112.185 85.8169 112.105 85.4769 111.946 85.2076C111.785 84.9369 111.573 84.7076 111.309 84.5156C111.045 84.3262 110.745 84.1649 110.41 84.0329C110.077 83.9009 109.734 83.7689 109.382 83.6356C109.029 83.5036 108.686 83.3582 108.353 83.1982C108.018 83.0382 107.721 82.8369 107.454 82.5982C107.19 82.3582 106.978 82.0649 106.818 81.7182C106.66 81.3702 106.578 80.9422 106.578 80.4369V80.2129C106.578 79.8102 106.656 79.4329 106.806 79.0796C106.957 78.7276 107.166 78.4182 107.432 78.1542C107.696 77.8889 108.005 77.6809 108.361 77.5302C108.717 77.3782 109.096 77.3022 109.498 77.3022H110.258C110.661 77.3022 111.038 77.3782 111.39 77.5302C111.744 77.6809 112.053 77.8889 112.317 78.1542C112.581 78.4182 112.79 78.7276 112.942 79.0796C113.093 79.4329 113.169 79.8102 113.169 80.2129V80.5182L112.102 80.6929V80.2129C112.102 79.9476 112.053 79.7022 111.953 79.4729C111.854 79.2436 111.72 79.0449 111.549 78.8742C111.378 78.7022 111.177 78.5676 110.948 78.4689C110.721 78.3689 110.473 78.3196 110.209 78.3196H109.548C109.282 78.3196 109.036 78.3689 108.808 78.4689C108.578 78.5676 108.378 78.7022 108.204 78.8742C108.03 79.0449 107.893 79.2436 107.794 79.4729C107.696 79.7022 107.646 79.9476 107.646 80.2129V80.4369C107.646 80.8169 107.725 81.1356 107.886 81.3942C108.045 81.6542 108.257 81.8769 108.522 82.0609C108.786 82.2462 109.086 82.4049 109.42 82.5409C109.753 82.6756 110.096 82.8129 110.448 82.9529C110.801 83.0942 111.144 83.2489 111.478 83.4169C111.812 83.5849 112.112 83.7916 112.376 84.0369C112.64 84.2822 112.852 84.5809 113.012 84.9342C113.172 85.2862 113.252 85.7169 113.252 86.2236V86.5796Z" fill="#7A3C19"></path><path d="M113.252 86.5796C113.252 86.9822 113.17 87.3596 113.008 87.7129C112.845 88.0649 112.626 88.3742 112.354 88.6382C112.081 88.9022 111.765 89.1102 111.404 89.2636C111.044 89.4142 110.661 89.4902 110.258 89.4902H109.406C109.004 89.4902 108.622 89.4142 108.262 89.2636C107.901 89.1102 107.584 88.9022 107.31 88.6382C107.038 88.3742 106.82 88.0649 106.658 87.7129C106.496 87.3596 106.413 86.9822 106.413 86.5796V86.1076L107.48 85.9356V86.5796C107.48 86.8436 107.534 87.0916 107.641 87.3196C107.749 87.5489 107.893 87.7502 108.076 87.9236C108.257 88.0969 108.468 88.2329 108.708 88.3316C108.948 88.4316 109.2 88.4809 109.465 88.4809H110.209C110.473 88.4809 110.724 88.4316 110.961 88.3316C111.198 88.2329 111.408 88.0969 111.59 87.9236C111.772 87.7502 111.917 87.5489 112.024 87.3196C112.13 87.0916 112.185 86.8436 112.185 86.5796V86.2236C112.185 85.8169 112.105 85.4769 111.946 85.2076C111.785 84.9369 111.573 84.7076 111.309 84.5156C111.045 84.3262 110.745 84.1649 110.41 84.0329C110.077 83.9009 109.734 83.7689 109.382 83.6356C109.029 83.5036 108.686 83.3582 108.353 83.1982C108.018 83.0382 107.721 82.8369 107.454 82.5982C107.19 82.3582 106.978 82.0649 106.818 81.7182C106.66 81.3702 106.578 80.9422 106.578 80.4369V80.2129C106.578 79.8102 106.656 79.4329 106.806 79.0796C106.957 78.7276 107.166 78.4182 107.432 78.1542C107.696 77.8889 108.005 77.6809 108.361 77.5302C108.717 77.3782 109.096 77.3022 109.498 77.3022H110.258C110.661 77.3022 111.038 77.3782 111.39 77.5302C111.744 77.6809 112.053 77.8889 112.317 78.1542C112.581 78.4182 112.79 78.7276 112.942 79.0796C113.093 79.4329 113.169 79.8102 113.169 80.2129V80.5182L112.102 80.6929V80.2129C112.102 79.9476 112.053 79.7022 111.953 79.4729C111.854 79.2436 111.72 79.0449 111.549 78.8742C111.378 78.7022 111.177 78.5676 110.948 78.4689C110.721 78.3689 110.473 78.3196 110.209 78.3196H109.548C109.282 78.3196 109.036 78.3689 108.808 78.4689C108.578 78.5676 108.378 78.7022 108.204 78.8742C108.03 79.0449 107.893 79.2436 107.794 79.4729C107.696 79.7022 107.646 79.9476 107.646 80.2129V80.4369C107.646 80.8169 107.725 81.1356 107.886 81.3942C108.045 81.6542 108.257 81.8769 108.522 82.0609C108.786 82.2462 109.086 82.4049 109.42 82.5409C109.753 82.6756 110.096 82.8129 110.448 82.9529C110.801 83.0942 111.144 83.2489 111.478 83.4169C111.812 83.5849 112.112 83.7916 112.376 84.0369C112.64 84.2822 112.852 84.5809 113.012 84.9342C113.172 85.2862 113.252 85.7169 113.252 86.2236V86.5796Z" stroke="#7A3C19" stroke-width="0.586667" stroke-miterlimit="10" stroke-linejoin="bevel"></path><path d="M115.609 89.3262V77.4688H122.283V78.4862H116.676V82.8942H121.216V83.9102H116.676V88.3088H122.283V89.3262H115.609Z" fill="#7A3C19"></path><path d="M115.609 89.3262V77.4688H122.283V78.4862H116.676V82.8942H121.216V83.9102H116.676V88.3088H122.283V89.3262H115.609Z" stroke="#7A3C19" stroke-width="0.586667" stroke-miterlimit="10" stroke-linejoin="bevel"></path><path d="M129.817 80.3869C129.817 80.1216 129.767 79.8749 129.667 79.6456C129.567 79.4176 129.434 79.2162 129.262 79.0429C129.091 78.8682 128.891 78.7336 128.663 78.6336C128.434 78.5336 128.187 78.4842 127.923 78.4842H125.278V83.2482H127.923C128.187 83.2482 128.434 83.1976 128.663 83.0976C128.891 82.9989 129.091 82.8629 129.262 82.6896C129.434 82.5162 129.567 82.3136 129.667 82.0856C129.767 81.8576 129.817 81.6109 129.817 81.3456V80.3869ZM129.957 89.3242L126.741 84.2642H125.278V89.3242H124.21V77.4682H127.973C128.375 77.4682 128.753 77.5429 129.106 77.6949C129.458 77.8469 129.767 78.0549 130.031 78.3189C130.295 78.5829 130.505 78.8936 130.655 79.2496C130.807 79.6056 130.883 79.9842 130.883 80.3869V81.3456C130.883 81.7482 130.807 82.1269 130.655 82.4816C130.505 82.8376 130.295 83.1469 130.031 83.4136C129.767 83.6776 129.458 83.8856 129.106 84.0362C128.753 84.1896 128.375 84.2642 127.973 84.2642L131.189 89.3242H129.957Z" fill="#7A3C19"></path><path d="M129.817 80.3869C129.817 80.1216 129.767 79.8749 129.667 79.6456C129.567 79.4176 129.434 79.2162 129.262 79.0429C129.091 78.8682 128.891 78.7336 128.663 78.6336C128.434 78.5336 128.187 78.4842 127.923 78.4842H125.278V83.2482H127.923C128.187 83.2482 128.434 83.1976 128.663 83.0976C128.891 82.9989 129.091 82.8629 129.262 82.6896C129.434 82.5162 129.567 82.3136 129.667 82.0856C129.767 81.8576 129.817 81.6109 129.817 81.3456V80.3869ZM129.957 89.3242L126.741 84.2642H125.278V89.3242H124.21V77.4682H127.973C128.375 77.4682 128.753 77.5429 129.106 77.6949C129.458 77.8469 129.767 78.0549 130.031 78.3189C130.295 78.5829 130.505 78.8936 130.655 79.2496C130.807 79.6056 130.883 79.9842 130.883 80.3869V81.3456C130.883 81.7482 130.807 82.1269 130.655 82.4816C130.505 82.8376 130.295 83.1469 130.031 83.4136C129.767 83.6776 129.458 83.8856 129.106 84.0362C128.753 84.1896 128.375 84.2642 127.973 84.2642L131.189 89.3242H129.957Z" stroke="#7A3C19" stroke-width="0.586667" stroke-miterlimit="10" stroke-linejoin="bevel"></path><path d="M135.829 86.7202L135.862 87.1576L135.895 86.7202L138.525 77.4682H139.625L136.134 89.3242H135.573L132.101 77.4682H133.207L135.829 86.7202Z" fill="#7A3C19"></path><path d="M135.829 86.7202L135.862 87.1576L135.895 86.7202L138.525 77.4682H139.625L136.134 89.3242H135.573L132.101 77.4682H133.207L135.829 86.7202Z" stroke="#7A3C19" stroke-width="0.586667" stroke-miterlimit="10" stroke-linejoin="bevel"></path><path d="M142.197 85.5475H145.381L143.818 80.0822L143.785 79.6435L143.751 80.0822L142.197 85.5475ZM145.662 86.5648H141.907L141.13 89.3262H140.023L143.495 77.4688H144.058L147.547 89.3262H146.447L145.662 86.5648Z" fill="#7A3C19"></path><path d="M142.197 85.5475H145.381L143.818 80.0822L143.785 79.6435L143.751 80.0822L142.197 85.5475ZM145.662 86.5648H141.907L141.13 89.3262H140.023L143.495 77.4688H144.058L147.547 89.3262H146.447L145.662 86.5648Z" stroke="#7A3C19" stroke-width="0.586667" stroke-miterlimit="10" stroke-linejoin="bevel"></path><path d="M155.408 87.7129C155.256 88.0662 155.048 88.3742 154.783 88.6382C154.519 88.9036 154.211 89.1116 153.858 89.2636C153.504 89.4142 153.127 89.4902 152.724 89.4902H151.88C151.48 89.4902 151.102 89.4142 150.744 89.2636C150.388 89.1116 150.079 88.9036 149.815 88.6382C149.55 88.3742 149.342 88.0662 149.19 87.7129C149.039 87.3596 148.963 86.9822 148.963 86.5796V80.2129C148.963 79.8102 149.039 79.4329 149.19 79.0796C149.342 78.7289 149.55 78.4182 149.815 78.1542C150.079 77.8902 150.388 77.6822 150.744 77.5302C151.102 77.3782 151.48 77.3022 151.88 77.3022H152.724C153.127 77.3022 153.504 77.3782 153.858 77.5302C154.211 77.6822 154.519 77.8902 154.783 78.1542C155.048 78.4182 155.256 78.7289 155.408 79.0796C155.559 79.4329 155.636 79.8102 155.636 80.2129V80.6929L154.568 80.8569V80.2129C154.568 79.9489 154.519 79.7022 154.42 79.4729C154.322 79.2436 154.186 79.0449 154.015 78.8742C153.844 78.7022 153.644 78.5689 153.415 78.4689C153.187 78.3689 152.939 78.3196 152.675 78.3196H151.932C151.666 78.3196 151.42 78.3689 151.191 78.4689C150.962 78.5689 150.762 78.7022 150.588 78.8742C150.414 79.0449 150.278 79.2436 150.178 79.4729C150.079 79.7022 150.03 79.9489 150.03 80.2129V86.5796C150.03 86.8449 150.079 87.0916 150.178 87.3196C150.278 87.5489 150.414 87.7502 150.588 87.9236C150.762 88.0969 150.962 88.2342 151.191 88.3329C151.42 88.4316 151.666 88.4809 151.932 88.4809H152.675C152.939 88.4809 153.187 88.4316 153.415 88.3329C153.644 88.2342 153.844 88.0969 154.015 87.9236C154.186 87.7502 154.322 87.5489 154.42 87.3196C154.519 87.0916 154.568 86.8449 154.568 86.5796V85.9356L155.636 86.1089V86.5796C155.636 86.9822 155.559 87.3596 155.408 87.7129Z" fill="#7A3C19"></path><path d="M155.408 87.7129C155.256 88.0662 155.048 88.3742 154.783 88.6382C154.519 88.9036 154.211 89.1116 153.858 89.2636C153.504 89.4142 153.127 89.4902 152.724 89.4902H151.88C151.48 89.4902 151.102 89.4142 150.744 89.2636C150.388 89.1116 150.079 88.9036 149.815 88.6382C149.55 88.3742 149.342 88.0662 149.19 87.7129C149.039 87.3596 148.963 86.9822 148.963 86.5796V80.2129C148.963 79.8102 149.039 79.4329 149.19 79.0796C149.342 78.7289 149.55 78.4182 149.815 78.1542C150.079 77.8902 150.388 77.6822 150.744 77.5302C151.102 77.3782 151.48 77.3022 151.88 77.3022H152.724C153.127 77.3022 153.504 77.3782 153.858 77.5302C154.211 77.6822 154.519 77.8902 154.783 78.1542C155.048 78.4182 155.256 78.7289 155.408 79.0796C155.559 79.4329 155.636 79.8102 155.636 80.2129V80.6929L154.568 80.8569V80.2129C154.568 79.9489 154.519 79.7022 154.42 79.4729C154.322 79.2436 154.186 79.0449 154.015 78.8742C153.844 78.7022 153.644 78.5689 153.415 78.4689C153.187 78.3689 152.939 78.3196 152.675 78.3196H151.932C151.666 78.3196 151.42 78.3689 151.191 78.4689C150.962 78.5689 150.762 78.7022 150.588 78.8742C150.414 79.0449 150.278 79.2436 150.178 79.4729C150.079 79.7022 150.03 79.9489 150.03 80.2129V86.5796C150.03 86.8449 150.079 87.0916 150.178 87.3196C150.278 87.5489 150.414 87.7502 150.588 87.9236C150.762 88.0969 150.962 88.2342 151.191 88.3329C151.42 88.4316 151.666 88.4809 151.932 88.4809H152.675C152.939 88.4809 153.187 88.4316 153.415 88.3329C153.644 88.2342 153.844 88.0969 154.015 87.9236C154.186 87.7502 154.322 87.5489 154.42 87.3196C154.519 87.0916 154.568 86.8449 154.568 86.5796V85.9356L155.636 86.1089V86.5796C155.636 86.9822 155.559 87.3596 155.408 87.7129Z" stroke="#7A3C19" stroke-width="0.586667" stroke-miterlimit="10" stroke-linejoin="bevel"></path><path d="M158.076 77.4688H159.143V89.3262H158.076V77.4688Z" fill="#7A3C19" stroke="#7A3C19" stroke-width="0.586667" stroke-miterlimit="10" stroke-linejoin="bevel"></path><path d="M164.832 76.1209H164.072L165.428 74.0876H167.124L164.832 76.1209ZM167.355 80.2129C167.355 79.9489 167.304 79.7036 167.205 79.4742C167.107 79.2449 166.971 79.0449 166.801 78.8742C166.631 78.7036 166.429 78.5689 166.2 78.4702C165.971 78.3702 165.725 78.3196 165.461 78.3196H164.716C164.452 78.3196 164.205 78.3702 163.976 78.4702C163.748 78.5689 163.547 78.7036 163.373 78.8742C163.199 79.0449 163.064 79.2449 162.964 79.4742C162.864 79.7036 162.815 79.9489 162.815 80.2129V86.5809C162.815 86.8449 162.864 87.0929 162.964 87.3196C163.064 87.5489 163.199 87.7516 163.373 87.9249C163.547 88.0969 163.748 88.2342 163.976 88.3329C164.205 88.4316 164.452 88.4822 164.716 88.4822H165.461C165.725 88.4822 165.971 88.4316 166.2 88.3329C166.429 88.2342 166.631 88.0969 166.801 87.9249C166.971 87.7516 167.107 87.5489 167.205 87.3196C167.304 87.0929 167.355 86.8449 167.355 86.5809V80.2129ZM168.193 87.7129C168.041 88.0662 167.833 88.3742 167.569 88.6396C167.304 88.9036 166.996 89.1116 166.643 89.2636C166.291 89.4156 165.913 89.4902 165.511 89.4902H164.667C164.265 89.4902 163.885 89.4156 163.529 89.2636C163.175 89.1116 162.864 88.9036 162.6 88.6396C162.335 88.3742 162.128 88.0662 161.975 87.7129C161.824 87.3609 161.748 86.9822 161.748 86.5809V80.2129C161.748 79.8116 161.824 79.4329 161.975 79.0809C162.128 78.7289 162.335 78.4196 162.6 78.1542C162.864 77.8902 163.175 77.6822 163.529 77.5316C163.885 77.3782 164.265 77.3036 164.667 77.3036H165.511C165.913 77.3036 166.291 77.3782 166.643 77.5316C166.996 77.6822 167.304 77.8902 167.569 78.1542C167.833 78.4196 168.041 78.7289 168.193 79.0809C168.345 79.4329 168.421 79.8116 168.421 80.2129V86.5809C168.421 86.9822 168.345 87.3609 168.193 87.7129" fill="#7A3C19"></path><path d="M164.832 76.1209H164.072L165.428 74.0876H167.124L164.832 76.1209ZM167.355 80.2129C167.355 79.9489 167.304 79.7036 167.205 79.4742C167.107 79.2449 166.971 79.0449 166.801 78.8742C166.631 78.7036 166.429 78.5689 166.2 78.4702C165.971 78.3702 165.725 78.3196 165.461 78.3196H164.716C164.452 78.3196 164.205 78.3702 163.976 78.4702C163.748 78.5689 163.547 78.7036 163.373 78.8742C163.199 79.0449 163.064 79.2449 162.964 79.4742C162.864 79.7036 162.815 79.9489 162.815 80.2129V86.5809C162.815 86.8449 162.864 87.0929 162.964 87.3196C163.064 87.5489 163.199 87.7516 163.373 87.9249C163.547 88.0969 163.748 88.2342 163.976 88.3329C164.205 88.4316 164.452 88.4822 164.716 88.4822H165.461C165.725 88.4822 165.971 88.4316 166.2 88.3329C166.429 88.2342 166.631 88.0969 166.801 87.9249C166.971 87.7516 167.107 87.5489 167.205 87.3196C167.304 87.0929 167.355 86.8449 167.355 86.5809V80.2129ZM168.193 87.7129C168.041 88.0662 167.833 88.3742 167.569 88.6396C167.304 88.9036 166.996 89.1116 166.643 89.2636C166.291 89.4156 165.913 89.4902 165.511 89.4902H164.667C164.265 89.4902 163.885 89.4156 163.529 89.2636C163.175 89.1116 162.864 88.9036 162.6 88.6396C162.335 88.3742 162.128 88.0662 161.975 87.7129C161.824 87.3609 161.748 86.9822 161.748 86.5809V80.2129C161.748 79.8116 161.824 79.4329 161.975 79.0809C162.128 78.7289 162.335 78.4196 162.6 78.1542C162.864 77.8902 163.175 77.6822 163.529 77.5316C163.885 77.3782 164.265 77.3036 164.667 77.3036H165.511C165.913 77.3036 166.291 77.3782 166.643 77.5316C166.996 77.6822 167.304 77.8902 167.569 78.1542C167.833 78.4196 168.041 78.7289 168.193 79.0809C168.345 79.4329 168.421 79.8116 168.421 80.2129V86.5809C168.421 86.9822 168.345 87.3609 168.193 87.7129V87.7129Z" stroke="#7A3C19" stroke-width="0.586667" stroke-miterlimit="10" stroke-linejoin="bevel"></path><path d="M177.146 89.3262L172.2 80.6942L172.102 80.1822V89.3262H171.035V77.4688H171.588L176.534 86.1102L176.64 86.6142V77.4688H177.708V89.3262H177.146Z" fill="#7A3C19"></path><path d="M177.146 89.3262L172.2 80.6942L172.102 80.1822V89.3262H171.035V77.4688H171.588L176.534 86.1102L176.64 86.6142V77.4688H177.708V89.3262H177.146Z" stroke="#7A3C19" stroke-width="0.586667" stroke-miterlimit="10" stroke-linejoin="bevel"></path><path fill-rule="evenodd" clip-rule="evenodd" d="M170.736 6.15212V7.29345H170.334L169.662 4.54012V7.29345H168.99V3.80145H170.064L170.736 6.15212ZM167.916 5.68145C167.916 3.80145 169.058 2.18945 170.736 1.45079V0.442787C168.52 1.18145 166.908 3.19612 166.908 5.68145C166.908 8.10012 168.52 10.1828 170.736 10.9215V9.84679C169.058 9.17479 167.916 7.56279 167.916 5.68145V5.68145ZM170.736 7.29345V6.15212V6.21879L171.342 3.80145H172.416V7.29345H171.744V4.54012L171.072 7.29345H170.736ZM172.484 10.1828C171.878 10.1828 171.274 10.1161 170.736 9.84679V10.9215C171.274 11.1228 171.878 11.1895 172.484 11.1895V10.1828ZM170.736 1.45079C171.274 1.24812 171.878 1.11479 172.484 1.11479V0.106787C171.878 0.106787 171.274 0.241453 170.736 0.442787V1.45079ZM174.566 3.80145V4.33879H174.431H173.826V5.27879H174.364H174.566V6.01745C174.498 5.95079 174.431 5.88412 174.364 5.88412C174.298 5.81612 174.162 5.81612 174.028 5.81612H173.826V7.29345H173.155V3.80145H174.566ZM174.566 9.71212C173.962 10.0481 173.222 10.1828 172.484 10.1828V11.1895C173.222 11.1895 173.962 11.0561 174.566 10.7868V9.71212ZM172.484 1.11479C173.222 1.11479 173.962 1.31612 174.566 1.65212V0.509453C173.962 0.30812 173.222 0.106787 172.484 0.106787V1.11479ZM174.566 6.01745V5.27879C174.834 5.27879 174.968 5.27879 175.036 5.21212C175.103 5.21212 175.17 5.14412 175.238 5.07745C175.304 5.01079 175.304 4.94279 175.304 4.80945C175.304 4.67479 175.238 4.60679 175.238 4.54012C175.17 4.47345 175.036 4.40545 174.968 4.40545C174.902 4.40545 174.767 4.33879 174.566 4.33879V3.80145H174.632C175.036 3.80145 175.304 3.80145 175.439 3.86812C175.64 3.93479 175.775 4.06945 175.91 4.20412C175.976 4.33879 176.043 4.54012 176.043 4.74145C176.043 5.01079 175.976 5.27879 175.775 5.41345C175.64 5.61479 175.439 5.68145 175.103 5.74945C175.238 5.81612 175.372 5.95079 175.506 6.01745C175.574 6.15212 175.708 6.35345 175.91 6.62279L176.312 7.29345H175.439L174.968 6.55479C174.767 6.28679 174.632 6.08545 174.566 6.01745ZM174.566 1.65212C176.043 2.39079 177.051 3.93479 177.051 5.68145C177.051 7.42945 176.043 8.97345 174.566 9.71212V10.7868C176.582 9.98145 177.991 7.96545 177.991 5.68145C177.991 3.33079 176.582 1.38279 174.566 0.509453V1.65212Z" fill="#6D3628"></path><path fill-rule="evenodd" clip-rule="evenodd" d="M34.9814 47.0263C34.9814 40.0396 39.6828 34.397 45.3934 34.397C51.1694 34.397 55.8721 40.0396 55.8721 47.0263C55.8721 54.0116 51.1694 59.6543 45.3934 59.6543C39.6828 59.6543 34.9814 54.0116 34.9814 47.0263Z" fill="#6D3628"></path><path fill-rule="evenodd" clip-rule="evenodd" d="M40.0192 55.6243V56.095C39.6166 55.8257 39.3472 55.355 39.3472 55.423C39.6166 55.4897 39.8179 55.5563 40.0192 55.6243ZM40.0192 54.2803V55.0203C39.2139 55.0203 38.6086 53.743 38.6086 53.811C39.1459 54.2123 39.6166 54.2803 40.0192 54.2803ZM40.0192 53.0043V53.6763C39.8179 53.743 39.6166 53.743 39.4819 53.743C38.3406 53.6763 37.7352 52.199 37.8019 52.199C38.6752 52.871 39.4139 53.0043 40.0192 53.0043ZM40.0192 51.259V51.9963C39.8179 51.9963 39.6166 52.0643 39.4819 52.0643C38.0046 51.9963 37.1979 50.4523 37.2659 50.519C38.3406 51.123 39.2806 51.259 40.0192 51.259ZM40.0192 49.847C39.2139 49.847 38.2726 49.579 37.1979 49.0417C37.1299 48.975 38.0712 50.6523 39.6832 50.7203C39.8179 50.787 39.9526 50.787 40.0192 50.7203V49.847ZM40.0192 48.503V49.3763H39.6832C37.8019 49.311 36.7272 47.563 36.8619 47.563C38.0046 48.1683 39.1459 48.4363 40.0192 48.503ZM40.0192 41.3163C38.7432 41.5857 37.8019 42.727 37.7352 43.4657C37.7352 43.4657 38.3406 42.5257 40.0192 42.2577V41.3163ZM40.0192 40.3097V40.9137C39.1459 41.115 38.2726 41.5857 38.2726 41.5857C38.3406 41.1817 39.2139 40.511 40.0192 40.3097V40.3097ZM40.0192 39.167C39.0779 39.3017 38.8779 39.839 38.6752 40.2417C38.6752 40.3097 39.4139 39.9057 40.0192 39.839V39.167ZM40.0192 38.2257V38.6977C39.0779 38.763 38.5419 39.3683 38.7432 39.167C38.9446 38.9657 39.0112 38.2937 40.0192 38.2257ZM40.0192 53.6763V53.0043C40.6912 52.9363 41.0939 52.7363 41.0939 52.803C41.0272 53.0043 40.5566 53.475 40.0192 53.6763ZM40.0192 55.0203V54.2803C40.6912 54.3483 41.0939 53.9443 41.0939 54.0123C41.0272 54.2803 40.5566 54.9523 40.0192 55.0203ZM41.1606 56.7657V57.1017C40.8246 56.9683 40.6246 56.699 40.6246 56.699C40.8246 56.7657 41.0272 56.7657 41.1606 56.7657ZM41.1606 55.355V56.095C41.0272 56.1617 40.9592 56.2283 40.8926 56.2963C40.5566 56.363 40.2886 56.2963 40.0192 56.095V55.6243C40.4899 55.691 40.8926 55.5563 41.1606 55.355V55.355ZM41.1606 51.191V51.459C40.8926 51.6603 40.4899 51.863 40.0192 51.9963V51.259C40.4899 51.259 40.8926 51.191 41.1606 51.191ZM41.1606 49.847V50.4523C40.8246 50.587 40.4219 50.7203 40.0192 50.7203V49.847C40.4219 49.915 40.8246 49.847 41.1606 49.847ZM41.1606 48.4363V49.1083C40.8246 49.243 40.4219 49.3763 40.0192 49.3763V48.503C40.4219 48.503 40.8246 48.503 41.1606 48.4363ZM41.1606 41.383V42.323C40.8926 42.2577 40.6912 42.1897 40.4899 42.2577H40.0192V41.3163H40.5566C40.7579 41.3163 40.9592 41.3163 41.1606 41.383V41.383ZM41.1606 40.511V40.9137C40.8926 40.8457 40.5566 40.8457 40.2206 40.9137H40.0192V40.3097H40.2206C40.5566 40.2417 40.8246 40.375 41.1606 40.511V40.511ZM41.1606 39.503V39.9057C40.8246 39.839 40.4899 39.771 40.1539 39.771C40.0859 39.771 40.0859 39.771 40.0192 39.839V39.167H40.0859C40.5566 39.167 40.8926 39.3017 41.1606 39.503V39.503ZM41.1606 38.6977V38.9657C40.7579 38.763 40.3552 38.6977 40.0192 38.6977V38.2257H40.0859C40.5566 38.159 40.9592 38.4283 41.1606 38.6977V38.6977ZM41.1606 38.9657V38.6977C41.2952 38.8977 41.4299 39.099 41.3619 39.099C41.2952 39.0337 41.2286 39.0337 41.1606 38.9657ZM41.1606 51.459V51.191C41.4299 51.123 41.5646 51.0563 41.5646 51.0563C41.4966 51.191 41.3619 51.3243 41.1606 51.459V51.459ZM41.5646 56.699V57.2363C41.4299 57.2363 41.2952 57.1683 41.1606 57.1017V56.7657C41.2952 56.7657 41.4299 56.7657 41.5646 56.699ZM41.5646 55.087V55.423C41.4966 55.691 41.3619 55.9603 41.1606 56.095V55.355C41.3619 55.2883 41.4966 55.1537 41.5646 55.087V55.087ZM41.5646 49.7803V50.183C41.4299 50.251 41.2952 50.3177 41.1606 50.4523V49.847C41.2952 49.847 41.4299 49.7803 41.5646 49.7803ZM41.5646 48.4363V48.975C41.4299 49.0417 41.2952 49.1083 41.1606 49.1083V48.4363H41.5646ZM41.5646 41.5177V42.459C41.4299 42.391 41.2952 42.323 41.1606 42.323V41.383C41.2952 41.383 41.4299 41.451 41.5646 41.5177ZM41.5646 40.711V40.9817C41.4299 40.9137 41.2952 40.9137 41.1606 40.9137V40.511C41.2952 40.5777 41.4299 40.6457 41.5646 40.711ZM41.5646 39.9057V39.9737C41.4966 39.9737 41.3619 39.9057 41.1606 39.9057V39.503C41.3619 39.6377 41.4966 39.839 41.5646 39.9057ZM41.5646 36.8163V37.1523C41.4966 37.0177 41.4966 36.883 41.4966 36.883C41.4966 36.883 41.5646 36.883 41.5646 36.8163ZM43.3112 56.6323C43.3112 56.6323 43.5126 57.5723 42.9086 57.5723C42.7726 57.5723 42.7726 56.9683 42.7726 56.9683L43.3112 56.6323ZM44.5872 46.623C44.5872 46.623 42.4366 51.595 42.6392 51.595H44.7206L44.5872 46.623ZM44.7206 56.2963C44.7206 56.2963 44.9232 56.9003 44.7886 57.371C44.6539 57.9083 44.3846 58.0417 44.2512 58.1097C44.1166 58.1763 44.0499 57.3043 44.1166 57.1017C44.2512 56.9683 44.7206 56.2963 44.7206 56.2963V56.2963ZM45.4606 51.9963H43.6472L42.9752 52.467H45.4606H47.9459L47.2739 51.9963H45.4606ZM45.1246 36.2777H45.7286V51.459H45.1246V36.2777ZM47.5432 56.6323C47.5432 56.6323 47.3406 57.5723 47.9459 57.5723C48.0792 57.5723 48.0792 56.9683 48.0792 56.9683L47.5432 56.6323ZM46.2672 46.623L46.1312 51.595H48.1472C48.4152 51.595 46.2672 46.623 46.2672 46.623V46.623ZM46.0646 56.2963C46.0646 56.2963 45.9299 56.9003 46.0646 57.371C46.1992 57.9083 46.4672 58.0417 46.6019 58.1097C46.7366 58.1763 46.8032 57.3043 46.6699 57.1017C46.6019 56.9683 46.0646 56.2963 46.0646 56.2963V56.2963ZM41.5646 37.1523C41.9672 38.4283 44.5872 43.063 44.5872 43.063L44.6539 36.3457C44.6539 36.3457 43.5792 35.8083 43.1086 36.0097C42.7726 36.1443 41.8326 36.547 41.5646 36.8163V37.1523ZM41.5646 39.9737V39.9057V39.9737ZM41.5646 40.9817V40.711C41.8326 40.9137 42.0339 41.047 42.0339 41.047C42.0339 41.047 41.8326 40.9817 41.5646 40.9817V40.9817ZM41.5646 42.459V41.5177C42.6392 42.055 42.9752 43.2643 42.9752 43.2643C42.9752 43.2643 42.3032 42.7937 41.5646 42.459V42.459ZM41.5646 48.975V48.4363C42.1686 48.303 42.5046 48.235 42.5046 48.235C42.4366 48.4363 42.0339 48.7057 41.5646 48.975V48.975ZM41.5646 50.183V49.7803C41.9006 49.7123 42.1019 49.647 42.1019 49.647C42.0339 49.7803 41.8326 49.9817 41.5646 50.183ZM41.5646 55.423V55.087C41.6312 55.0203 41.6312 54.9523 41.6312 54.9523C41.6312 55.087 41.6312 55.2203 41.5646 55.423ZM41.5646 57.2363V56.699C41.9006 56.5643 42.0339 56.2283 42.1019 56.2283C42.1019 56.4297 41.9672 57.035 41.6979 57.1683C41.6312 57.1683 41.5646 57.2363 41.5646 57.2363ZM49.2886 56.699V57.2363C49.2219 57.2363 49.2219 57.1683 49.1552 57.1683C48.8859 57.035 48.7512 56.4297 48.7512 56.2283C48.7512 56.2283 48.9539 56.5643 49.2886 56.699V56.699ZM49.2886 55.087V55.423C49.2219 55.2203 49.2219 55.087 49.2219 54.9523C49.2219 54.9523 49.2219 55.0203 49.2886 55.087V55.087ZM49.2886 49.7803V50.183C49.0206 49.9817 48.8192 49.7803 48.7512 49.647C48.7512 49.647 48.9539 49.7123 49.2886 49.7803ZM49.2886 48.4363V48.975C48.8192 48.7057 48.4152 48.4363 48.3486 48.235C48.3486 48.235 48.6846 48.303 49.2886 48.4363ZM49.2886 41.5177C48.2139 42.055 47.8792 43.2643 47.8792 43.2643C47.8792 43.2643 48.5499 42.7937 49.2886 42.459V41.5177ZM49.2886 40.711C49.0206 40.9137 48.8192 41.047 48.8192 41.047C48.8192 41.047 49.0206 40.9817 49.2886 40.9817V40.711ZM49.2886 39.9057C49.2886 39.9737 49.2219 39.9737 49.2219 39.9737H49.2886V39.9057ZM49.2886 36.8163V37.1523C48.8859 38.4283 46.2672 43.063 46.2672 43.063L46.1992 36.3457C46.1992 36.3457 47.2739 35.8083 47.6766 36.0097C48.0792 36.1443 48.9539 36.547 49.2886 36.8163ZM49.2886 37.1523V36.8163C49.2886 36.883 49.2886 36.883 49.3566 36.883C49.3566 36.883 49.3566 37.0177 49.2886 37.1523ZM49.6926 56.7657V57.1017C49.5579 57.1683 49.4232 57.2363 49.2886 57.2363V56.699C49.4232 56.7657 49.5579 56.7657 49.6926 56.7657V56.7657ZM49.6926 55.355V56.095C49.4912 55.9603 49.3566 55.691 49.2886 55.423V55.087C49.3566 55.1537 49.4912 55.2883 49.6926 55.355V55.355ZM49.6926 51.191V51.459C49.4912 51.3243 49.3566 51.191 49.2886 51.0563C49.2886 51.0563 49.4232 51.123 49.6926 51.191ZM49.6926 49.847V50.4523C49.5579 50.3177 49.4232 50.251 49.2886 50.183V49.7803C49.4232 49.7803 49.5579 49.847 49.6926 49.847ZM49.6926 48.4363V49.1083C49.5579 49.1083 49.4232 49.0417 49.2886 48.975V48.4363H49.6926ZM49.6926 41.383V42.323C49.5579 42.323 49.4232 42.391 49.2886 42.459V41.5177C49.4232 41.451 49.5579 41.383 49.6926 41.383ZM49.6926 40.511V40.9137C49.5579 40.9137 49.4232 40.9137 49.2886 40.9817V40.711C49.4232 40.6457 49.5579 40.5777 49.6926 40.511ZM49.6926 39.503V39.9057C49.4912 39.9057 49.3566 39.9737 49.2886 39.9737V39.9057C49.3566 39.839 49.4912 39.6377 49.6926 39.503ZM49.4912 39.099C49.4232 39.099 49.4912 38.8977 49.6926 38.6977V38.9657C49.6246 39.0337 49.5579 39.0337 49.4912 39.099V39.099ZM49.6926 57.1017V56.7657C49.8259 56.7657 50.0272 56.7657 50.2299 56.699C50.2299 56.699 49.9606 56.9683 49.6926 57.1017V57.1017ZM50.8339 55.6243V56.095C50.5659 56.2963 50.2966 56.363 49.9606 56.2963C49.8939 56.2283 49.7592 56.1617 49.6926 56.095V55.355C49.9606 55.5563 50.3632 55.691 50.8339 55.6243ZM50.8339 54.2803V55.0203C50.2299 54.9523 49.8259 54.2803 49.7592 54.0123C49.7592 53.9443 50.1619 54.3483 50.8339 54.2803ZM50.8339 53.0043V53.6763C50.2966 53.475 49.8259 53.0043 49.7592 52.803C49.7592 52.7363 50.1619 52.9363 50.8339 53.0043V53.0043ZM50.8339 51.259V51.9963C50.3632 51.863 49.9606 51.6603 49.6926 51.459V51.191C49.9606 51.191 50.3632 51.259 50.8339 51.259ZM50.8339 49.847V50.7203C50.4312 50.7203 50.0272 50.587 49.6926 50.4523V49.847C50.0272 49.847 50.3632 49.915 50.8339 49.847ZM50.8339 48.503V49.3763C50.4312 49.3763 50.0272 49.243 49.6926 49.1083V48.4363C50.0272 48.503 50.4312 48.503 50.8339 48.503ZM50.8339 41.3163V42.2577H50.3632C50.1619 42.1897 49.8939 42.2577 49.6926 42.323V41.383C49.8939 41.3163 50.0952 41.3163 50.2966 41.3163H50.8339ZM50.8339 40.3097V40.9137H50.6326C50.2966 40.8457 49.9606 40.8457 49.6926 40.9137V40.511C49.9606 40.375 50.2966 40.2417 50.6326 40.3097H50.8339ZM50.8339 39.167V39.839C50.7672 39.771 50.7672 39.771 50.6992 39.771C50.3632 39.771 50.0272 39.839 49.6926 39.9057V39.503C49.9606 39.3017 50.2966 39.167 50.7672 39.167H50.8339ZM49.6926 38.6977C49.8939 38.4283 50.2299 38.159 50.7672 38.2257H50.8339V38.6977C50.4979 38.6977 50.0952 38.763 49.6926 38.9657V38.6977ZM50.8339 39.839C51.4379 39.9057 52.1779 40.3097 52.1779 40.2417C51.9766 39.839 51.7739 39.3017 50.8339 39.167V39.839ZM50.8339 40.9137C51.6406 41.115 52.5806 41.5857 52.5806 41.5857C52.5139 41.1817 51.6406 40.511 50.8339 40.3097V40.9137ZM50.8339 42.2577V41.3163C52.1099 41.5857 53.0499 42.727 53.0499 43.4657C53.1179 43.4657 52.5139 42.5257 50.8339 42.2577ZM50.8339 49.3763V48.503C51.7072 48.4363 52.8499 48.1683 53.9912 47.563C54.1259 47.563 53.0499 49.311 51.1032 49.3763H50.8339ZM50.8339 50.7203C50.9019 50.787 51.0352 50.787 51.1032 50.7203C52.7819 50.6523 53.7219 48.975 53.5886 49.0417C52.5806 49.579 51.6406 49.847 50.8339 49.847V50.7203ZM50.8339 51.9963V51.259C51.5739 51.259 52.5139 51.123 53.5886 50.519C53.6552 50.4523 52.8499 51.9963 51.3712 52.0643C51.1699 52.0643 51.0352 51.9963 50.8339 51.9963V51.9963ZM50.8339 53.6763V53.0043C51.4379 53.0043 52.1779 52.871 53.0499 52.199C53.1179 52.199 52.5139 53.6763 51.3712 53.743C51.1699 53.743 50.9686 53.743 50.8339 53.6763ZM50.8339 55.0203V54.2803C51.1699 54.2803 51.6406 54.2123 52.1779 53.811C52.2446 53.743 51.6406 55.0203 50.8339 55.0203V55.0203ZM50.8339 56.095V55.6243C51.0352 55.5563 51.2379 55.4897 51.5059 55.423C51.5059 55.355 51.2379 55.8257 50.8339 56.095V56.095ZM50.8339 38.2257C51.8419 38.2937 51.9086 38.9657 52.1099 39.167C52.3112 39.3683 51.7739 38.763 50.8339 38.6977V38.2257Z" fill="white"></path><path fill-rule="evenodd" clip-rule="evenodd" d="M69.9111 47.0263C69.9111 40.0396 74.5458 34.397 80.3231 34.397C86.0325 34.397 90.7351 40.0396 90.7351 47.0263C90.7351 54.0116 86.0325 59.6543 80.3231 59.6543C74.5458 59.6543 69.9111 54.0116 69.9111 47.0263Z" fill="#6D3628"></path><path fill-rule="evenodd" clip-rule="evenodd" d="M74.8815 55.6243V56.095C74.4789 55.8257 74.2095 55.355 74.2095 55.423C74.4789 55.4897 74.6802 55.5563 74.8815 55.6243ZM74.8815 54.2803V55.0203C74.0762 55.0203 73.4709 53.743 73.5375 53.811C74.0762 54.2123 74.5455 54.2803 74.8815 54.2803ZM74.8815 53.0043V53.6763C74.7469 53.743 74.5455 53.743 74.3442 53.743C73.2015 53.6763 72.5975 52.199 72.6642 52.199C73.5375 52.871 74.3442 53.0043 74.8815 53.0043ZM74.8815 51.259V51.9963C74.7469 51.9963 74.5455 52.0643 74.3442 52.0643C72.8655 51.9963 72.1269 50.4523 72.1949 50.519C73.2015 51.123 74.1429 51.259 74.8815 51.259ZM74.8815 49.847C74.1429 49.847 73.1349 49.579 72.1269 49.0417C72.0602 48.975 72.9335 50.6523 74.6122 50.7203C74.6802 50.787 74.8135 50.787 74.8815 50.7203V49.847ZM74.8815 48.503V49.3763H74.6122C72.6642 49.311 71.5895 47.563 71.7242 47.563C72.8655 48.1683 74.0082 48.4363 74.8815 48.503ZM74.8815 41.3163C73.6042 41.5857 72.7322 42.727 72.6642 43.4657C72.6642 43.4657 73.2015 42.5257 74.8815 42.2577V41.3163ZM74.8815 40.3097V40.9137C74.0762 41.115 73.1349 41.5857 73.1349 41.5857C73.2695 41.1817 74.1429 40.511 74.8815 40.3097V40.3097ZM74.8815 39.167C73.9402 39.3017 73.7402 39.839 73.5375 40.2417C73.5375 40.3097 74.2762 39.9057 74.8815 39.839V39.167ZM74.8815 38.2257V38.6977C73.9402 38.763 73.4042 39.3683 73.6042 39.167C73.8069 38.9657 73.8735 38.2937 74.8815 38.2257ZM74.8815 53.6763V53.0043C75.5522 52.9363 75.9562 52.7363 75.9562 52.803C75.8882 53.0043 75.4189 53.475 74.8815 53.6763ZM74.8815 55.0203V54.2803C75.5522 54.3483 75.9562 53.9443 75.9562 54.0123C75.9562 54.2803 75.4855 54.9523 74.8815 55.0203ZM76.0229 56.7657V57.1017C75.7549 56.9683 75.4855 56.699 75.5522 56.699C75.6869 56.7657 75.8882 56.7657 76.0229 56.7657ZM76.0229 55.355V56.095C75.9562 56.1617 75.8215 56.2283 75.7549 56.2963C75.4855 56.363 75.1495 56.2963 74.8815 56.095V55.6243C75.4189 55.691 75.7549 55.5563 76.0229 55.355V55.355ZM76.0229 51.191V51.459C75.7549 51.6603 75.3522 51.863 74.8815 51.9963V51.259C75.3522 51.259 75.7549 51.191 76.0229 51.191ZM76.0229 49.847V50.4523C75.6869 50.587 75.2842 50.7203 74.8815 50.7203V49.847C75.3522 49.915 75.6869 49.847 76.0229 49.847ZM76.0229 48.4363V49.1083C75.6869 49.243 75.2842 49.3763 74.8815 49.3763V48.503C75.3522 48.503 75.6869 48.503 76.0229 48.4363ZM76.0229 41.383V42.323C75.8215 42.2577 75.5522 42.1897 75.3522 42.2577H74.8815V41.3163H75.4189C75.6869 41.3163 75.8215 41.3163 76.0229 41.383V41.383ZM76.0229 40.511V40.9137C75.7549 40.8457 75.4189 40.8457 75.1495 40.9137H74.8815V40.3097H75.0829C75.4189 40.2417 75.7549 40.375 76.0229 40.511V40.511ZM76.0229 39.503V39.9057C75.7549 39.839 75.3522 39.771 75.0162 39.771C74.9482 39.771 74.9482 39.771 74.8815 39.839V39.167H75.0162C75.4189 39.167 75.7549 39.3017 76.0229 39.503ZM76.0229 38.6977V38.9657C75.6202 38.763 75.2162 38.6977 74.8815 38.6977V38.2257H74.9482C75.4855 38.159 75.8215 38.4283 76.0229 38.6977V38.6977ZM76.0229 38.9657V38.6977C76.2242 38.8977 76.2922 39.099 76.2242 39.099C76.1575 39.0337 76.0909 39.0337 76.0229 38.9657ZM76.0229 51.459V51.191C76.2922 51.123 76.4269 51.0563 76.4269 51.0563C76.3589 51.191 76.2242 51.3243 76.0229 51.459V51.459ZM76.4269 56.699V57.2363C76.2922 57.2363 76.1575 57.1683 76.0229 57.1017V56.7657C76.1575 56.7657 76.2922 56.7657 76.4269 56.699ZM76.4269 55.087V55.423C76.3589 55.691 76.2242 55.9603 76.0229 56.095V55.355C76.2242 55.2883 76.3589 55.1537 76.4269 55.087V55.087ZM76.4269 49.7803V50.183C76.2922 50.251 76.1575 50.3177 76.0229 50.4523V49.847C76.1575 49.847 76.2922 49.7803 76.4269 49.7803ZM76.4269 48.4363V48.975C76.2922 49.0417 76.1575 49.1083 76.0229 49.1083V48.4363H76.4269ZM76.4269 41.5177V42.459C76.2922 42.391 76.1575 42.323 76.0229 42.323V41.383C76.1575 41.383 76.2922 41.451 76.4269 41.5177ZM76.4269 40.711V40.9817C76.2922 40.9137 76.1575 40.9137 76.0229 40.9137V40.511C76.1575 40.5777 76.2922 40.6457 76.4269 40.711ZM76.4269 39.9057V39.9737C76.3589 39.9737 76.2242 39.9057 76.0229 39.9057V39.503C76.2242 39.6377 76.3589 39.839 76.4269 39.9057ZM76.4269 36.8163V37.1523C76.3589 37.0177 76.3589 36.883 76.3589 36.883C76.4269 36.883 76.4269 36.883 76.4269 36.8163ZM78.1722 56.6323C78.1722 56.6323 78.3749 57.5723 77.7695 57.5723C77.6349 57.5723 77.6349 56.9683 77.6349 56.9683L78.1722 56.6323ZM79.4495 46.623C79.4495 46.623 77.3669 51.595 77.5682 51.595H79.5829L79.4495 46.623ZM79.6509 56.2963C79.6509 56.2963 79.7855 56.9003 79.6509 57.371C79.5162 57.9083 79.2469 58.0417 79.1135 58.1097C78.9789 58.1763 78.9109 57.3043 79.0469 57.1017C79.1135 56.9683 79.6509 56.2963 79.6509 56.2963V56.2963ZM80.3229 51.9963H78.5082L77.8362 52.467H80.3229H82.8749L82.1362 51.9963H80.3229ZM79.9869 36.2777H80.6589V51.459H79.9869V36.2777ZM82.4042 56.6323C82.4042 56.6323 82.2029 57.5723 82.8749 57.5723C82.9415 57.5723 82.9415 56.9683 82.9415 56.9683L82.4042 56.6323ZM81.1949 46.623L80.9935 51.595H83.0762C83.2775 51.595 81.1949 46.623 81.1949 46.623V46.623ZM80.9935 56.2963C80.9935 56.2963 80.7922 56.9003 80.9269 57.371C81.0615 57.9083 81.3295 58.0417 81.4642 58.1097C81.5989 58.1763 81.6655 57.3043 81.5989 57.1017C81.4642 56.9683 80.9935 56.2963 80.9935 56.2963V56.2963ZM76.4269 37.1523C76.8295 38.4283 79.4495 43.063 79.4495 43.063L79.5162 36.3457C79.5162 36.3457 78.4415 35.8083 78.0389 36.0097C77.6349 36.1443 76.7629 36.547 76.4269 36.8163V37.1523ZM76.4269 39.9737V39.9057C76.4269 39.9737 76.4935 39.9737 76.4935 39.9737H76.4269ZM76.4269 40.9817V40.711C76.6949 40.9137 76.8962 41.047 76.8962 41.047C76.8962 41.047 76.6949 40.9817 76.4269 40.9817V40.9817ZM76.4269 42.459V41.5177C77.5015 42.055 77.8362 43.2643 77.8362 43.2643C77.8362 43.2643 77.2322 42.7937 76.4269 42.459V42.459ZM76.4269 48.975V48.4363C77.0309 48.303 77.3669 48.235 77.3669 48.235C77.2989 48.4363 76.9642 48.7057 76.4269 48.975V48.975ZM76.4269 50.183V49.7803C76.8295 49.7123 77.0309 49.647 76.9642 49.647C76.9642 49.7803 76.6949 49.9817 76.4269 50.183V50.183ZM76.4269 55.423V55.087C76.4935 55.0203 76.4935 54.9523 76.4935 54.9523C76.4935 55.087 76.4935 55.2203 76.4269 55.423ZM76.4269 57.2363V56.699C76.8295 56.5643 76.9642 56.2283 76.9642 56.2283C76.9642 56.4297 76.8962 57.035 76.5602 57.1683C76.4935 57.1683 76.4935 57.2363 76.4269 57.2363ZM84.1509 56.699V57.2363C84.1509 57.2363 84.0842 57.1683 84.0175 57.1683C83.7482 57.035 83.6135 56.4297 83.6815 56.2283C83.6815 56.2283 83.8149 56.4977 84.1509 56.699V56.699ZM84.1509 55.087V55.423C84.0842 55.2203 84.0842 55.087 84.0842 54.9523C84.0842 54.9523 84.0842 55.0203 84.1509 55.087V55.087ZM84.1509 49.7803V50.183C83.8815 49.9817 83.6815 49.7803 83.6135 49.647C83.6135 49.647 83.8149 49.7123 84.1509 49.7803V49.7803ZM84.1509 48.4363V48.975C83.6815 48.7057 83.2775 48.4363 83.2109 48.235C83.2109 48.235 83.5469 48.303 84.1509 48.4363ZM84.1509 41.5177C83.1429 42.055 82.7402 43.2643 82.7402 43.2643C82.7402 43.2643 83.4122 42.7937 84.1509 42.459V41.5177ZM84.1509 40.711C83.8815 40.9137 83.7482 41.047 83.7482 41.047C83.7482 41.047 83.8815 40.9817 84.1509 40.9817V40.711ZM84.1509 39.9057V39.9737V39.9057ZM84.1509 36.8163V37.1523C83.7482 38.4283 81.1949 43.063 81.1949 43.063L81.0615 36.3457C81.0615 36.3457 82.1362 35.8083 82.6055 36.0097C83.0095 36.1443 83.8815 36.547 84.1509 36.8163V36.8163ZM84.1509 37.1523V36.8163L84.2175 36.883C84.2175 36.883 84.2175 37.0177 84.1509 37.1523ZM84.5535 56.7657V57.1017C84.4202 57.1683 84.2855 57.2363 84.1509 57.2363V56.699C84.2855 56.7657 84.4202 56.7657 84.5535 56.7657ZM84.5535 55.355V56.095C84.4202 55.9603 84.2855 55.691 84.1509 55.423V55.087C84.2175 55.1537 84.4202 55.2883 84.5535 55.355V55.355ZM84.5535 51.191V51.459C84.3522 51.3243 84.2175 51.191 84.1509 51.0563C84.1509 51.0563 84.2855 51.123 84.5535 51.191ZM84.5535 49.847V50.4523C84.4202 50.3177 84.2855 50.251 84.1509 50.183V49.7803C84.2855 49.7803 84.4202 49.847 84.5535 49.847ZM84.5535 48.4363V49.1083C84.4202 49.1083 84.2855 49.0417 84.1509 48.975V48.4363H84.5535ZM84.5535 41.383V42.323C84.4202 42.323 84.2855 42.391 84.1509 42.459V41.5177C84.2855 41.451 84.4202 41.383 84.5535 41.383ZM84.5535 40.511V40.9137C84.4202 40.9137 84.2855 40.9137 84.1509 40.9817V40.711C84.2855 40.6457 84.4202 40.5777 84.5535 40.511ZM84.5535 39.503V39.9057C84.4202 39.9057 84.2175 39.9737 84.1509 39.9737V39.9057C84.2175 39.839 84.3522 39.6377 84.5535 39.503ZM84.3522 39.099C84.3522 39.099 84.4202 38.8977 84.5535 38.6977V38.9657C84.4869 39.0337 84.4202 39.0337 84.3522 39.099ZM84.5535 57.1017V56.7657C84.7562 56.7657 84.8895 56.7657 85.0909 56.699C85.0909 56.699 84.8895 56.9683 84.5535 57.1017ZM85.6962 55.6243V56.095C85.4269 56.2963 85.1589 56.363 84.8895 56.2963C84.7562 56.2283 84.6882 56.1617 84.5535 56.095V55.355C84.8229 55.5563 85.2255 55.691 85.6962 55.6243ZM85.6962 54.2803V55.0203C85.1589 54.9523 84.6882 54.2803 84.6215 54.0123C84.6215 53.9443 85.0242 54.3483 85.6962 54.2803ZM85.6962 53.0043V53.6763C85.1589 53.475 84.7562 53.0043 84.6882 52.803C84.6215 52.7363 85.0242 52.9363 85.6962 53.0043V53.0043ZM85.6962 51.259V51.9963C85.2935 51.863 84.8895 51.6603 84.5535 51.459V51.191C84.8229 51.191 85.2255 51.259 85.6962 51.259V51.259ZM85.6962 49.847V50.7203C85.2935 50.7203 84.8895 50.587 84.5535 50.4523V49.847C84.8895 49.847 85.2935 49.915 85.6962 49.847ZM85.6962 48.503V49.3763C85.2935 49.3763 84.9575 49.243 84.5535 49.1083V48.4363C84.8895 48.503 85.2935 48.503 85.6962 48.503ZM85.6962 41.3163V42.2577H85.2255C85.0242 42.1897 84.8229 42.2577 84.5535 42.323V41.383C84.7562 41.3163 84.9575 41.3163 85.1589 41.3163H85.6962ZM85.6962 40.3097V40.9137H85.4935C85.1589 40.8457 84.8229 40.8457 84.5535 40.9137V40.511C84.8895 40.375 85.2255 40.2417 85.4935 40.3097H85.6962ZM85.6962 39.167V39.839C85.6962 39.771 85.6295 39.771 85.6295 39.771C85.2935 39.771 84.8895 39.839 84.5535 39.9057V39.503C84.8229 39.3017 85.1589 39.167 85.6295 39.167H85.6962ZM84.5535 38.6977C84.7562 38.4283 85.1589 38.159 85.6295 38.2257H85.6962V38.6977C85.3602 38.6977 85.0242 38.763 84.5535 38.9657V38.6977ZM85.6962 39.839C86.3002 39.9057 87.0402 40.3097 87.0402 40.2417C86.8375 39.839 86.6362 39.3017 85.6962 39.167V39.839ZM85.6962 40.9137C86.5695 41.115 87.4429 41.5857 87.4429 41.5857C87.3762 41.1817 86.5015 40.511 85.6962 40.3097V40.9137ZM85.6962 42.2577V41.3163C87.0402 41.5857 87.9122 42.727 87.9802 43.4657C87.9802 43.4657 87.3762 42.5257 85.6962 42.2577V42.2577ZM85.6962 49.3763V48.503C86.6362 48.4363 87.7122 48.1683 88.9202 47.563C88.9882 47.563 87.9122 49.311 86.0322 49.3763H85.6962ZM85.6962 50.7203C85.8309 50.787 85.8975 50.787 86.0322 50.7203C87.6442 50.6523 88.5842 48.975 88.5175 49.0417C87.4429 49.579 86.5015 49.847 85.6962 49.847V50.7203ZM85.6962 51.9963V51.259C86.4349 51.259 87.3762 51.123 88.4495 50.519C88.5175 50.4523 87.7122 51.9963 86.3002 52.0643C86.0989 52.0643 85.8975 51.9963 85.6962 51.9963V51.9963ZM85.6962 53.6763V53.0043C86.3002 53.0043 87.1069 52.871 87.9122 52.199C87.9802 52.199 87.3762 53.6763 86.3002 53.743C86.0989 53.743 85.8975 53.743 85.6962 53.6763ZM85.6962 55.0203V54.2803C86.0989 54.2803 86.5695 54.2123 87.1069 53.811C87.1069 53.743 86.5015 55.0203 85.6962 55.0203V55.0203ZM85.6962 56.095V55.6243C85.8975 55.5563 86.0989 55.4897 86.3682 55.423C86.3682 55.355 86.0989 55.8257 85.6962 56.095V56.095ZM85.6962 38.2257C86.7042 38.2937 86.8375 38.9657 87.0402 39.167C87.1735 39.3683 86.6362 38.763 85.6962 38.6977V38.2257Z" fill="white"></path><path fill-rule="evenodd" clip-rule="evenodd" d="M43.5789 45.4824C43.5789 44.3411 42.2362 43.4664 40.6909 43.4664C39.0789 43.4664 37.1309 44.6771 37.1309 45.5504C37.1309 46.4224 39.0789 47.4984 40.6909 47.4984C42.2362 47.4984 43.5789 46.5571 43.5789 45.4824ZM47.2735 45.4824C47.2735 44.3411 48.5495 43.4664 50.1615 43.4664C51.7735 43.4664 53.6549 44.6771 53.6549 45.5504C53.6549 46.4224 51.7735 47.4984 50.1615 47.4984C48.5495 47.4984 47.2735 46.5571 47.2735 45.4824V45.4824ZM45.4602 54.6851C46.6682 54.6851 46.5349 55.2891 47.1389 55.2891C47.6762 55.2891 48.3482 54.6851 48.2815 54.2824C48.2149 53.8797 47.7442 53.2744 46.8029 53.6104C45.5269 54.0797 45.4602 54.0797 45.4602 54.0797C45.4602 54.0797 45.3255 54.0797 44.0495 53.6104C43.1082 53.2744 42.6389 53.8797 42.5722 54.2824C42.5042 54.6851 43.1082 55.2891 43.7135 55.2891C44.3175 55.2891 44.2509 54.6851 45.4602 54.6851V54.6851ZM78.4415 45.4824C78.4415 44.3411 77.1655 43.4664 75.5522 43.4664C73.9402 43.4664 72.0602 44.6771 72.0602 45.5504C72.0602 46.4224 73.9402 47.4984 75.5522 47.4984C77.1655 47.4984 78.4415 46.5571 78.4415 45.4824ZM82.1362 45.4824C82.1362 44.3411 83.4789 43.4664 85.0242 43.4664C86.6362 43.4664 88.5842 44.6771 88.5842 45.5504C88.5842 46.4224 86.6362 47.4984 85.0242 47.4984C83.4789 47.4984 82.1362 46.5571 82.1362 45.4824V45.4824ZM80.3229 54.6851C81.5309 54.6851 81.3975 55.2891 82.0015 55.2891C82.6069 55.2891 83.2109 54.6851 83.1429 54.2824C83.0762 53.8797 82.6069 53.2744 81.6655 53.6104C80.3895 54.0797 80.3229 54.0797 80.3229 54.0797C80.3229 54.0797 80.1882 54.0797 78.9122 53.6104C77.9709 53.2744 77.5002 53.8797 77.4349 54.2824C77.3669 54.6851 78.0389 55.2891 78.5762 55.2891C79.1802 55.2891 79.1135 54.6851 80.3229 54.6851" fill="#F63440"></path><path fill-rule="evenodd" clip-rule="evenodd" d="M169.124 21.3666H175.773V28.084H169.124V21.3666Z" fill="#F63440" stroke="#6D3628" stroke-width="2.22667" stroke-miterlimit="10"></path><path fill-rule="evenodd" clip-rule="evenodd" d="M3.00774 32.7184H27.9957V38.0918L10.3971 58.1771H28.6677V63.8198H2.06641V58.6464L19.8677 38.2264H3.00774V32.7184ZM45.3931 29.8971V34.5318C41.8997 34.5998 39.4157 35.8758 37.8024 38.3611C36.1904 40.9131 35.3851 43.9371 35.3851 47.4971C35.3851 50.9224 36.1904 53.8104 37.8024 56.0944C39.4157 58.3784 41.9677 59.5211 45.3931 59.5211V64.2224H44.8557C40.0864 64.2224 36.3931 62.7451 33.5704 59.7224C30.8171 56.6984 29.4064 52.6691 29.4064 47.6318C29.4064 42.1904 30.8837 37.8904 33.7731 34.6664C36.7277 31.5091 40.5571 29.8971 45.3931 29.8971V29.8971ZM45.3931 64.2224V59.5211H45.4597C49.2891 59.5211 51.9091 58.1771 53.3197 55.4224C54.7304 52.7371 55.4691 49.7131 55.4691 46.3558C55.4691 43.3318 54.9317 40.9131 53.9251 39.0331C52.3117 36.0784 49.4904 34.5998 45.5277 34.5318H45.3931V29.8971H45.5944C50.0277 29.8971 53.7891 31.2411 56.8797 33.9958C59.9024 36.8158 61.4477 40.8464 61.4477 46.2198C61.4477 51.4598 60.1037 55.7584 57.4171 59.1171C54.7971 62.4091 50.7664 64.0878 45.3931 64.2224ZM80.3224 29.8971V34.5318C76.8304 34.5998 74.2771 35.8758 72.6651 38.3611C71.0531 40.9131 70.2477 43.9371 70.2477 47.4971C70.2477 50.9224 71.0531 53.8104 72.6651 56.0944C74.2771 58.3784 76.8304 59.5211 80.3224 59.5211V64.2224H79.7184C75.0157 64.2224 71.2544 62.7451 68.4331 59.7224C65.6784 56.6984 64.2691 52.6691 64.2691 47.6318C64.2691 42.1904 65.7464 37.8904 68.7024 34.6664C71.5904 31.5091 75.4197 29.8971 80.3224 29.8971V29.8971ZM114.581 21.1651V26.7411L113.17 26.6731C112.768 26.6064 112.498 26.6064 112.23 26.6064C111.088 26.6064 110.214 26.8078 109.812 27.3451C109.341 27.8158 109.14 28.8224 109.14 30.3678V32.7184H114.581V37.6224H109.14V63.8198H102.557V37.6224H97.7864V32.7184H102.557V28.8891C102.557 26.2024 103.229 24.1878 104.572 22.8451C105.848 21.5011 107.864 20.8291 110.55 20.8291C111.289 20.8291 112.565 20.9638 114.38 21.1651H114.581ZM80.3224 64.2224V59.5211C84.1517 59.5211 86.7717 58.1771 88.1824 55.4224C89.5931 52.7371 90.3317 49.7131 90.3317 46.3558C90.3317 43.3318 89.7944 40.9131 88.7864 39.0331C87.1744 36.0784 84.3531 34.5998 80.3904 34.5318H80.3224V29.8971H80.5237C84.9571 29.8971 88.6517 31.2411 91.7424 33.9958C94.7651 36.8158 96.3091 40.8464 96.3091 46.2198C96.3091 51.4598 94.9664 55.7584 92.2797 59.1171C89.6597 62.4091 85.6971 64.0878 80.3224 64.2224V64.2224ZM129.694 44.8771V49.9811C128.754 50.1171 127.813 50.1838 126.941 50.4531C125.396 50.8558 124.657 51.3931 124.053 52.1318C123.448 52.8704 123.112 53.6771 123.245 54.8851C123.313 56.1624 123.85 57.1024 124.993 57.7064C126.47 58.5798 128.149 58.7144 129.694 58.4464V63.8864C128.485 64.2904 127.142 64.4238 125.865 64.4238C122.709 64.4238 120.021 63.4838 118.208 61.8038C116.461 60.1918 115.789 57.9744 115.857 55.1544C115.857 53.7438 116.058 52.5344 116.461 51.5264C117 50.1838 117.872 49.1091 118.948 48.2358C120.828 46.7571 122.842 46.0198 124.993 45.5491C126.537 45.2798 128.082 45.0118 129.694 44.8771V44.8771ZM129.694 30.6358V35.6744H129.561C127.545 35.6744 125.798 36.2118 124.724 37.1518C123.514 38.2264 123.112 39.3011 122.776 40.5118V40.7118L117.401 40.9131V40.4438C117.268 32.9878 123.717 30.8384 129.694 30.6358ZM164.557 32.0478V38.8318H162.81C160.19 38.8318 158.174 39.5038 156.833 40.8464C155.489 42.1904 154.817 44.2051 154.817 46.8918V63.8198H148.301V32.7184H154.481V38.2264C155.421 36.1438 156.564 34.5998 157.974 33.5251C159.452 32.5171 161.13 31.9798 163.078 31.9798H163.281C163.75 32.0478 164.154 32.0478 164.557 32.0478V32.0478ZM129.694 63.8864V58.4464C131.238 58.1771 132.65 57.5051 133.858 56.5651C135.404 55.3558 136.076 53.8784 136.142 51.8624L136.21 48.6384C134.397 49.7811 131.978 49.8478 129.694 49.9811V44.8771H129.761C135.606 44.1371 136.412 43.8691 136.748 41.1158C136.882 39.6371 136.478 38.0918 134.732 36.8158C133.725 36.0104 131.844 35.6078 129.694 35.6744V30.6358H130.03C134.061 30.6358 138.226 31.7118 140.308 33.2558C142.457 34.8011 143.532 37.2864 143.532 40.3091L143.464 55.6904C143.464 57.7064 143.464 60.1918 143.8 61.9384C143.936 63.0144 144.606 63.9544 145.413 64.3571C144.741 64.5584 143.6 64.6264 142.793 64.5584C140.644 64.5584 139.434 64.1558 138.426 63.3491C137.486 62.6104 137.016 61.4011 137.016 59.7891C135.806 61.3344 133.658 62.4091 131.844 63.1478C131.173 63.4838 130.433 63.7518 129.694 63.8864V63.8864ZM169.124 32.7184H175.773V63.8198H169.124V32.7184Z" fill="#F37D20"></path><path d="M135 50.4759C133.609 50.9145 132.118 51.0225 130.661 51.1279C129.428 51.2172 128.262 51.3012 127.256 51.5825C125.941 51.9252 125.405 52.3305 124.96 52.8759C124.548 53.3785 124.312 53.8692 124.412 54.7572C124.465 55.7265 124.801 56.2799 125.541 56.6705C128.201 58.2185 131.29 57.0785 133.14 55.6399C134.365 54.6799 134.916 53.5399 134.972 51.8252L135 50.4759ZM128.3 59.7612C127.002 59.7612 125.673 59.4585 124.404 58.7212C122.965 57.9599 122.168 56.6825 122.076 54.9479C121.925 53.6185 122.264 52.4679 123.144 51.3905C124.001 50.3439 125.016 49.7439 126.645 49.3185C127.86 48.9799 129.197 48.8839 130.492 48.7892C132.412 48.6519 134.225 48.5199 135.578 47.6532L137.428 46.4665L137.314 51.8892C137.234 54.3172 136.366 56.0932 134.582 57.4892C133.004 58.7172 130.708 59.7612 128.3 59.7612V59.7612ZM45.5075 35.7052C42.3915 35.7052 40.1902 36.7799 38.7942 38.9892C37.2888 41.3719 36.5568 44.1545 36.5568 47.4985C36.5568 50.6825 37.2982 53.3479 38.7608 55.4199C40.1528 57.3919 42.3448 58.3492 45.4608 58.3492C48.8542 58.3492 51.0835 57.2185 52.2768 54.8905L52.2808 54.8799C53.6195 52.3319 54.2982 49.4639 54.2982 46.3559C54.2982 43.6065 53.8248 41.3292 52.8915 39.5879C51.5008 37.0385 49.0835 35.7665 45.5075 35.7052V35.7052ZM45.4608 60.6932C41.5822 60.6932 38.6835 59.3745 36.8448 56.7719C35.0982 54.2972 34.2129 51.1759 34.2129 47.4985C34.2129 43.7505 35.0862 40.4665 36.8115 37.7359C38.6462 34.8332 41.5795 33.3612 45.5275 33.3612C49.9795 33.4359 53.1448 35.1559 54.9542 38.4719C56.0755 40.5652 56.6408 43.2159 56.6408 46.3559C56.6408 49.8452 55.8742 53.0785 54.3608 55.9639C52.7502 59.1025 49.7555 60.6932 45.4608 60.6932ZM80.3702 35.7052C77.2542 35.7052 75.0515 36.7799 73.6568 38.9892C72.1515 41.3719 71.4195 44.1545 71.4195 47.4985C71.4195 50.6825 72.1608 53.3479 73.6235 55.4199C75.0142 57.3919 77.2062 58.3492 80.3235 58.3492C83.7168 58.3492 85.9449 57.2185 87.1382 54.8905L87.1448 54.8799C88.4808 52.3332 89.1595 49.4639 89.1595 46.3559C89.1595 43.6065 88.6862 41.3292 87.7529 39.5879C86.3635 37.0385 83.9462 35.7665 80.3702 35.7052V35.7052ZM80.3235 60.6932C76.4435 60.6932 73.5448 59.3745 71.7075 56.7719C69.9608 54.2972 69.0755 51.1759 69.0755 47.4985C69.0755 43.7505 69.9488 40.4665 71.6742 37.7359C73.5075 34.8332 76.4408 33.3612 80.3902 33.3612C84.8422 33.4359 88.0075 35.1572 89.8168 38.4719C90.9368 40.5652 91.5035 43.2159 91.5035 46.3559C91.5035 49.8465 90.7368 53.0812 89.2222 55.9665C87.6102 59.1039 84.6168 60.6932 80.3235 60.6932V60.6932ZM3.23951 62.6479H27.4955V59.3492H7.81018L26.8235 37.6532V33.8919H4.17951V37.0559H22.4448L3.23951 59.0879V62.6479ZM29.8395 64.9932H0.895508V58.2092L17.2915 39.3999H1.83551V31.5479H29.1675V38.5345L12.9822 57.0052H29.8395V64.9932ZM103.729 62.6479H107.969V36.4505H113.409V33.8919H107.969V30.3679C107.969 28.4612 108.264 27.2852 108.925 26.5772C109.544 25.8092 110.626 25.4345 112.23 25.4345C112.513 25.4345 112.832 25.4345 113.292 25.5065L113.409 25.5119V22.2385C112.1 22.0959 111.12 22.0025 110.55 22.0025C108.189 22.0025 106.462 22.5572 105.422 23.6532C104.292 24.7825 103.729 26.5385 103.729 28.8905V33.8919H98.9595V36.4505H103.729V62.6479ZM110.312 64.9932H101.385V38.7945H96.6155V31.5479H101.385V28.8905C101.385 25.8932 102.178 23.5812 103.744 22.0159C105.222 20.4585 107.521 19.6572 110.55 19.6572C111.349 19.6572 112.613 19.7905 114.445 19.9945H115.753V27.9705L112.977 27.8305C112.67 27.7799 112.476 27.7799 112.23 27.7799C111.009 27.7799 110.75 28.0465 110.75 28.0492L110.64 28.1745C110.628 28.1892 110.312 28.5292 110.312 30.3679V31.5479H115.753V38.7945H110.312V64.9932ZM170.297 62.6479H174.602V33.8919H170.297V62.6479ZM176.948 64.9932H167.953V31.5479H176.948V64.9932ZM45.5942 31.0705C40.9275 31.0705 37.3435 32.5065 34.6368 35.4599C31.9462 38.4625 30.5782 42.5599 30.5782 47.6319C30.5782 52.3212 31.8768 56.1225 34.4382 58.9332C37.0208 61.7012 40.4328 63.0519 44.8568 63.0519C50.1555 63.0519 54.0715 61.4852 56.4955 58.3945C59.0062 55.2572 60.2755 51.1639 60.2755 46.2212C60.2755 41.2132 58.9062 37.4972 56.0902 34.8625C53.2222 32.3105 49.7902 31.0705 45.5942 31.0705V31.0705ZM44.8568 65.3945C39.7475 65.3945 35.7755 63.8012 32.7142 60.5225C29.7382 57.2572 28.2342 52.9225 28.2342 47.6319C28.2342 41.9652 29.8035 37.3412 32.8995 33.8852C36.0409 30.4585 40.3075 28.7265 45.5942 28.7265C50.3288 28.7265 54.3888 30.2039 57.6608 33.1212L57.6795 33.1399C60.9582 36.1985 62.6195 40.6012 62.6195 46.2212C62.6195 51.7092 61.1782 56.2945 58.3328 59.8505C55.4488 63.5265 50.9128 65.3945 44.8568 65.3945V65.3945ZM80.5248 31.0705C75.7968 31.0705 72.2155 32.5039 69.5755 35.4492C66.7902 38.4879 65.4408 42.4692 65.4408 47.6319C65.4408 52.3212 66.7395 56.1225 69.2995 58.9332C71.8835 61.7012 75.2942 63.0519 79.7182 63.0519C85.0928 63.0519 88.8995 61.5279 91.3582 58.3945C93.8675 55.2559 95.1382 51.1639 95.1382 46.2212C95.1382 41.2119 93.7688 37.4959 90.9528 34.8612C88.0848 32.3105 84.6742 31.0705 80.5248 31.0705ZM79.7182 65.3945C74.6795 65.3945 70.5942 63.7559 67.5768 60.5225C64.6008 57.2572 63.0968 52.9239 63.0968 47.6319C63.0968 41.9372 64.6928 37.3079 67.8368 33.8759C70.8955 30.4625 75.1662 28.7265 80.5248 28.7265C85.2795 28.7265 89.2048 30.1639 92.5235 33.1212L92.5422 33.1399C95.8195 36.1985 97.4822 40.5999 97.4822 46.2212C97.4822 51.7092 96.0395 56.2945 93.1942 59.8505C90.3115 63.5265 85.7755 65.3945 79.7182 65.3945V65.3945ZM149.473 62.6479H153.645V46.8919C153.645 43.8959 154.438 41.5839 156.004 40.0185C157.568 38.4532 159.86 37.6612 162.81 37.6612H163.385V33.1745C163.325 33.1692 163.264 33.1612 163.201 33.1532H163.08C161.413 33.1532 159.958 33.5919 158.636 34.4945C157.438 35.4065 156.414 36.7985 155.55 38.7105L153.309 43.6719V33.8919H149.473V62.6479ZM138.189 56.3905V59.7892C138.189 61.0385 138.513 61.9265 139.152 62.4292C139.873 63.0065 140.765 63.3879 142.793 63.3879L142.89 63.3919C142.93 63.3945 142.972 63.3972 143.014 63.3999C142.83 62.9999 142.702 62.5679 142.642 62.1239C142.294 60.2719 142.294 57.7332 142.294 55.6919L142.361 40.3052C142.361 37.6052 141.414 35.4959 139.624 34.2092C137.714 32.7919 133.774 31.8092 130.03 31.8092C124.941 31.9212 118.905 33.4025 118.585 39.6972L121.832 39.5745C122.176 38.5012 122.704 37.3799 123.945 36.2772C125.256 35.1305 127.248 34.5039 129.561 34.5039C132.042 34.4252 134.272 34.9479 135.465 35.9012C137.277 37.2252 138.116 39.0252 137.916 41.2225C137.444 45.0879 135.392 45.3479 129.909 46.0412C128.302 46.1759 126.7 46.4425 125.194 46.7039C122.908 47.2052 121.19 47.9652 119.672 49.1585C118.681 49.9639 117.981 50.8865 117.55 51.9625C117.205 52.8265 117.029 53.8999 117.029 55.1559C116.966 57.8119 117.593 59.6425 119.004 60.9439C120.612 62.4332 123.048 63.2532 125.865 63.2532C127.672 63.2532 129.58 62.8439 131.382 62.0705C133.721 61.1185 135.254 60.1385 136.093 59.0679L138.189 56.3905ZM143.452 65.7559C143.196 65.7559 142.958 65.7479 142.746 65.7305C140.482 65.7265 138.97 65.2852 137.694 64.2652C137.172 63.8545 136.582 63.1879 136.213 62.1412C135.19 62.8892 133.889 63.5812 132.286 64.2332C130.213 65.1225 127.986 65.5972 125.865 65.5972C122.457 65.5972 119.454 64.5572 117.413 62.6665C115.498 60.8985 114.606 58.4332 114.686 55.1265C114.686 53.6012 114.916 52.2332 115.373 51.0932C115.948 49.6545 116.902 48.3892 118.208 47.3279C120.033 45.8919 122.044 44.9945 124.742 44.4039C126.35 44.1239 128.01 43.8465 129.664 43.7092C135.338 42.9919 135.357 42.8385 135.584 40.9745C135.704 39.6532 135.214 38.6212 134.041 37.7639C133.388 37.2425 131.782 36.7785 129.597 36.8465C127.841 36.8465 126.36 37.2812 125.496 38.0359C124.542 38.8825 124.224 39.7052 123.949 40.6719V41.8412L116.23 42.1319V40.4452C116.109 33.6705 121.13 29.6612 130.005 29.4652C134.298 29.4652 138.709 30.6105 141.006 32.3159C143.421 34.0505 144.704 36.8185 144.704 40.3105L144.638 55.6972C144.638 57.6479 144.638 60.0812 144.953 61.7185L144.965 61.7932C145.058 62.5479 145.534 63.1079 145.937 63.3092L147.13 63.9052V31.5479H155.653V34.1185C156.152 33.5385 156.688 33.0319 157.264 32.5932C159.016 31.3972 160.956 30.8092 163.08 30.8092L163.446 30.8199C163.834 30.8759 164.169 30.8759 164.557 30.8759H165.729V40.0039H162.81C160.504 40.0039 158.77 40.5665 157.661 41.6759C156.552 42.7852 155.989 44.5412 155.989 46.8919V64.9932H147.373L145.75 65.4799C145.09 65.6772 144.208 65.7559 143.452 65.7559" fill="#6D3628"></path><path d="M70.431 104.46C69.3736 104.46 68.5456 104.825 67.951 105.556C67.355 106.288 67.0576 107.308 67.0576 108.617C67.0576 109.923 67.355 110.94 67.951 111.675C68.5456 112.408 69.3736 112.773 70.431 112.773C71.4856 112.773 72.3096 112.408 72.9043 111.675C73.5003 110.94 73.799 109.923 73.799 108.617C73.799 107.308 73.5016 106.288 72.9083 105.556C72.3163 104.825 71.4896 104.46 70.431 104.46Z" fill="#7A3C19"></path><path d="M81.8912 104.697H79.2539V108.041H81.8472C82.6046 108.041 83.1486 107.908 83.4779 107.642C83.8072 107.377 83.9739 106.946 83.9739 106.35C83.9739 105.77 83.8112 105.349 83.4899 105.088C83.1672 104.828 82.6352 104.697 81.8912 104.697Z" fill="#7A3C19"></path><path d="M110.731 104.46C109.672 104.46 108.847 104.825 108.251 105.556C107.653 106.288 107.357 107.308 107.357 108.617C107.357 109.923 107.653 110.94 108.251 111.675C108.847 112.408 109.672 112.773 110.731 112.773C111.784 112.773 112.609 112.408 113.204 111.675C113.8 110.94 114.097 109.923 114.097 108.617C114.097 107.308 113.801 106.288 113.208 105.556C112.615 104.825 111.789 104.46 110.731 104.46Z" fill="#7A3C19"></path><path d="M124.697 113.4C123.932 114.022 122.909 114.333 121.63 114.333C120.28 114.333 119.23 114.008 118.481 113.358C117.729 112.708 117.328 111.773 117.274 110.553H119.03C119.08 111.257 119.344 111.804 119.825 112.192C120.305 112.581 120.954 112.774 121.778 112.774C122.397 112.774 122.905 112.625 123.302 112.324C123.698 112.025 123.896 111.654 123.896 111.217C123.896 111.045 123.841 110.849 123.729 110.63C123.618 110.412 123.478 110.222 123.306 110.065C123.02 109.805 122.386 109.553 121.401 109.313C121.189 109.258 121.029 109.218 120.921 109.194C119.705 108.873 118.845 108.468 118.344 107.973C117.841 107.478 117.59 106.805 117.59 105.953C117.59 105.046 117.958 104.31 118.694 103.741C119.43 103.173 120.409 102.888 121.63 102.888C122.816 102.888 123.762 103.201 124.469 103.822C125.174 104.445 125.533 105.285 125.544 106.344L123.822 106.352C123.782 105.736 123.55 105.254 123.125 104.904C122.7 104.554 122.129 104.38 121.416 104.38C120.825 104.38 120.342 104.518 119.968 104.793C119.594 105.069 119.406 105.412 119.406 105.82C119.406 106.233 119.572 106.572 119.901 106.834C120.232 107.098 120.924 107.366 121.977 107.637C123.576 108.04 124.621 108.478 125.112 108.95C125.601 109.424 125.845 110.082 125.845 110.929C125.845 111.953 125.462 112.776 124.697 113.4ZM114.549 112.817C113.617 113.837 112.345 114.348 110.73 114.348C109.113 114.348 107.836 113.838 106.906 112.818C105.976 111.801 105.51 110.4 105.51 108.618C105.51 106.836 105.976 105.436 106.906 104.417C107.836 103.398 109.113 102.888 110.73 102.888C112.345 102.888 113.617 103.4 114.549 104.421C115.478 105.442 115.945 106.841 115.945 108.618C115.945 110.396 115.478 111.794 114.549 112.817V112.817ZM104.78 114.045H97.6038V103.169H99.4118V112.398H104.78V114.045ZM95.8465 114.045H87.8504V103.169H95.6464V104.764H89.6291V107.606H95.1811V109.128H89.6291V112.414H95.8465V114.045ZM86.0918 114.045H84.0691C83.9905 113.902 83.9304 113.734 83.8891 113.538C83.8464 113.345 83.8158 113.037 83.7958 112.613L83.7371 111.314C83.6971 110.614 83.5518 110.149 83.2985 109.918C83.0438 109.686 82.6145 109.57 82.0091 109.57H81.6625H79.2705V114.045H77.4758V103.169H82.1638C82.3078 103.169 82.4651 103.174 82.6371 103.184C82.6918 103.189 82.7238 103.192 82.7331 103.192C83.6931 103.192 84.4451 103.46 84.9891 103.996C85.5318 104.533 85.8051 105.27 85.8051 106.21C85.8051 106.826 85.6691 107.353 85.3985 107.792C85.1278 108.229 84.7438 108.544 84.2465 108.736C84.6891 108.878 85.0078 109.104 85.2024 109.412C85.3971 109.72 85.5118 110.22 85.5451 110.914L85.6411 112.473V112.486C85.6705 113.166 85.8211 113.58 86.0918 113.728V114.045ZM74.2491 112.817C73.3185 113.837 72.0465 114.348 70.4318 114.348C68.8118 114.348 67.5371 113.838 66.6078 112.818C65.6771 111.801 65.2118 110.4 65.2118 108.618C65.2118 106.836 65.6771 105.436 66.6078 104.417C67.5371 103.398 68.8118 102.888 70.4318 102.888C72.0465 102.888 73.3185 103.4 74.2491 104.421C75.1798 105.442 75.6451 106.841 75.6451 108.618C75.6451 110.396 75.1798 111.794 74.2491 112.817ZM63.3811 114.045H61.6598V105.058L58.9651 114.045H57.1931L54.5345 105.058V114.045H52.8585V103.169H55.4878L58.1011 111.868L60.7518 103.169H63.3811V114.045ZM0.0224609 118.104H178.001V98.6169H0.0224609V118.104Z" fill="#7A3C19"></path><path d="M58.1011 111.866L55.4877 103.169H52.8584V114.045H54.5344V105.058L57.1931 114.045H58.9651L61.6597 105.058V114.045H63.3811V103.169H60.7517L58.1011 111.866Z" fill="white"></path><path d="M72.9052 111.676C72.3092 112.409 71.4852 112.774 70.4319 112.774C69.3732 112.774 68.5466 112.409 67.9506 111.676C67.3546 110.941 67.0572 109.924 67.0572 108.618C67.0572 107.309 67.3546 106.289 67.9506 105.557C68.5466 104.826 69.3732 104.461 70.4319 104.461C71.4892 104.461 72.3159 104.826 72.9092 105.557C73.5026 106.289 73.7986 107.309 73.7986 108.618C73.7986 109.924 73.5012 110.941 72.9052 111.676ZM70.4319 102.888C68.8119 102.888 67.5372 103.398 66.6066 104.417C65.6772 105.436 65.2119 106.836 65.2119 108.618C65.2119 110.4 65.6772 111.801 66.6066 112.818C67.5372 113.838 68.8119 114.348 70.4319 114.348C72.0466 114.348 73.3186 113.837 74.2492 112.816C75.1799 111.794 75.6452 110.396 75.6452 108.618C75.6452 106.841 75.1799 105.442 74.2492 104.421C73.3186 103.4 72.0466 102.888 70.4319 102.888" fill="white"></path><path d="M83.4783 107.642C83.1476 107.908 82.6049 108.041 81.8463 108.041H79.2543V104.697H81.8916C82.6343 104.697 83.1676 104.828 83.4889 105.088C83.8116 105.349 83.9729 105.77 83.9729 106.35C83.9729 106.946 83.8076 107.377 83.4783 107.642ZM85.6423 112.486V112.472L85.5449 110.913C85.5116 110.22 85.3969 109.72 85.2023 109.41C85.0076 109.104 84.6889 108.878 84.2463 108.734C84.7436 108.544 85.1276 108.228 85.3983 107.79C85.6689 107.352 85.8049 106.826 85.8049 106.21C85.8049 105.27 85.5329 104.532 84.9889 103.996C84.4449 103.458 83.6929 103.19 82.7329 103.19C82.7236 103.19 82.6916 103.188 82.6369 103.182C82.4649 103.173 82.3076 103.169 82.1636 103.169H77.4756V114.045H79.2703V109.569H81.6623H82.0089C82.6143 109.569 83.0436 109.685 83.2983 109.917C83.5516 110.149 83.6969 110.614 83.7369 111.313L83.7956 112.613C83.8156 113.036 83.8463 113.344 83.8889 113.538C83.9303 113.733 83.9903 113.901 84.0689 114.045H86.0916V113.726C85.8209 113.578 85.6716 113.166 85.6423 112.486" fill="white"></path><path d="M89.6293 109.128H95.1813V107.606H89.6293V104.765H95.6466V103.169H87.8506V114.045H95.8466V112.414H89.6293V109.128Z" fill="white"></path><path d="M99.4115 103.169H97.6035V114.045H104.78V112.398H99.4115V103.169Z" fill="white"></path><path d="M113.204 111.676C112.61 112.409 111.784 112.774 110.731 112.774C109.672 112.774 108.846 112.409 108.25 111.676C107.654 110.941 107.356 109.924 107.356 108.618C107.356 107.309 107.654 106.289 108.25 105.557C108.846 104.826 109.672 104.461 110.731 104.461C111.788 104.461 112.615 104.826 113.208 105.557C113.8 106.289 114.098 107.309 114.098 108.618C114.098 109.924 113.799 110.941 113.204 111.676ZM110.731 102.888C109.112 102.888 107.836 103.398 106.906 104.417C105.975 105.436 105.51 106.836 105.51 108.618C105.51 110.4 105.975 111.801 106.906 112.818C107.836 113.838 109.112 114.348 110.731 114.348C112.344 114.348 113.618 113.837 114.548 112.816C115.478 111.794 115.944 110.396 115.944 108.618C115.944 106.841 115.478 105.442 114.548 104.421C113.618 103.4 112.344 102.888 110.731 102.888" fill="white"></path><path d="M121.977 107.636C120.924 107.365 120.232 107.099 119.901 106.833C119.572 106.571 119.406 106.232 119.406 105.82C119.406 105.411 119.594 105.068 119.968 104.792C120.342 104.517 120.825 104.38 121.416 104.38C122.129 104.38 122.7 104.553 123.125 104.903C123.55 105.253 123.782 105.735 123.822 106.351L125.544 106.343C125.533 105.284 125.174 104.444 124.469 103.823C123.762 103.2 122.816 102.887 121.63 102.887C120.409 102.887 119.43 103.172 118.694 103.74C117.958 104.309 117.59 105.047 117.59 105.952C117.59 106.804 117.841 107.477 118.344 107.972C118.845 108.467 119.705 108.873 120.921 109.193C121.029 109.219 121.189 109.257 121.401 109.312C122.386 109.552 123.02 109.804 123.306 110.064C123.478 110.221 123.618 110.411 123.729 110.629C123.841 110.848 123.896 111.045 123.896 111.217C123.896 111.655 123.698 112.024 123.302 112.324C122.905 112.624 122.397 112.775 121.778 112.775C120.954 112.775 120.305 112.58 119.825 112.191C119.344 111.803 119.08 111.256 119.03 110.553H117.274C117.328 111.773 117.729 112.708 118.481 113.357C119.23 114.007 120.281 114.332 121.63 114.332C122.909 114.332 123.932 114.021 124.697 113.399C125.462 112.775 125.845 111.952 125.845 110.929C125.845 110.081 125.601 109.423 125.112 108.949C124.621 108.477 123.576 108.04 121.977 107.636Z" fill="white"></path></svg>